# Blender 4.0.2
# www.blender.org
mtllib Wooden Boxes.mtl
o Large_Wooden_Box.01
v -1.006092 -0.795127 -0.596345
v -1.006092 0.596345 0.795127
v -1.105482 -0.795127 -0.596345
v -1.105482 0.596345 0.795127
v -1.006092 -0.596345 -0.795127
v -1.006092 0.795127 0.596345
v -1.105483 -0.596345 -0.795127
v -1.105482 0.795127 0.596345
v -1.105482 0.000000 0.198781
v -1.105482 -0.596345 0.795127
v -1.006092 0.000000 0.198781
v -1.006092 -0.596345 0.795127
v -1.006092 0.795127 0.795127
v -1.006092 -0.795127 -0.795127
v -1.006092 -0.795127 0.596345
v -1.006092 -0.198782 -0.000000
v -1.105482 -0.795127 0.596345
v -1.105482 -0.198782 -0.000000
v -1.006092 -0.099391 0.099391
v -1.006092 -0.795127 0.795127
v -1.105483 -0.000000 -0.198782
v -1.105483 0.596345 -0.795127
v -1.006092 -0.000000 -0.198782
v -1.006092 0.596345 -0.795127
v -1.006092 0.795127 -0.596345
v -1.006092 0.198782 -0.000000
v -1.105483 0.795127 -0.596345
v -1.105483 0.198782 -0.000000
v -1.006092 0.099391 -0.099391
v -1.006092 0.795127 -0.795127
v -2.993908 -0.795127 -0.596345
v -2.993908 0.596345 0.795127
v -2.894517 -0.795127 -0.596345
v -2.894517 0.596345 0.795127
v -2.993908 -0.596345 -0.795127
v -2.993908 0.795127 0.596345
v -2.894518 -0.596345 -0.795127
v -2.894517 0.795127 0.596345
v -2.894517 0.000000 0.198782
v -2.894517 -0.596345 0.795127
v -2.993908 0.000000 0.198782
v -2.993908 -0.596345 0.795127
v -2.993908 0.795127 0.795127
v -2.993908 -0.795127 -0.795127
v -2.993908 -0.795127 0.596345
v -2.993908 -0.198782 -0.000000
v -2.894517 -0.795127 0.596345
v -2.894517 -0.198782 -0.000000
v -2.993908 -0.099391 0.099391
v -2.993908 -0.795127 0.795127
v -2.894517 -0.000000 -0.198782
v -2.894517 0.596345 -0.795127
v -2.993908 -0.000000 -0.198782
v -2.993908 0.596345 -0.795127
v -2.993908 0.795127 -0.596345
v -2.993908 0.198782 0.000000
v -2.894517 0.795127 -0.596345
v -2.894517 0.198782 0.000000
v -2.993908 0.099391 -0.099391
v -2.993908 0.795127 -0.795127
v -3.000000 -1.000000 1.000000
v -3.000000 1.000000 1.000000
v -3.000000 -1.000000 -1.000000
v -3.000000 1.000000 -1.000000
v -1.000000 -1.000000 1.000000
v -1.000000 1.000000 1.000000
v -1.000000 -1.000000 -1.000000
v -1.000000 1.000000 -1.000000
v -3.000000 -0.800000 0.800000
v -3.000000 0.800000 0.800000
v -3.000000 0.800000 -0.800000
v -3.000000 -0.800000 -0.800000
v -2.800000 -0.800000 -1.000000
v -2.800000 0.800000 -1.000000
v -1.200000 0.800000 -1.000000
v -1.200000 -0.800000 -1.000000
v -1.000000 -0.800000 -0.800000
v -1.000000 0.800000 -0.800000
v -1.000000 0.800000 0.800000
v -1.000000 -0.800000 0.800000
v -1.200000 -0.800000 1.000000
v -1.200000 0.800000 1.000000
v -2.800000 0.800000 1.000000
v -2.800000 -0.800000 1.000000
v -2.800000 -1.000000 -0.800000
v -1.200000 -1.000000 -0.800000
v -1.200000 -1.000000 0.800000
v -2.800000 -1.000000 0.800000
v -1.200000 1.000000 -0.800000
v -2.800000 1.000000 -0.800000
v -2.800000 1.000000 0.800000
v -1.200000 1.000000 0.800000
v -2.900000 -0.800000 0.800000
v -2.900000 0.800000 0.800000
v -2.900000 -0.800000 -0.800000
v -2.900000 0.800000 -0.800000
v -2.800000 0.800000 -0.900000
v -2.800000 -0.800000 -0.900000
v -1.200000 -0.800000 -0.900000
v -1.200000 0.800000 -0.900000
v -1.100000 0.800000 -0.800000
v -1.100000 -0.800000 -0.800000
v -1.100000 -0.800000 0.800000
v -1.100000 0.800000 0.800000
v -1.200000 0.800000 0.900000
v -1.200000 -0.800000 0.900000
v -2.800000 -0.800000 0.900000
v -2.800000 0.800000 0.900000
v -1.200000 -0.900000 -0.800000
v -2.800000 -0.900000 -0.800000
v -2.800000 -0.900000 0.800000
v -1.200000 -0.900000 0.800000
v -2.800000 0.900000 -0.800000
v -1.200000 0.900000 -0.800000
v -1.200000 0.900000 0.800000
v -2.800000 0.900000 0.800000
v -1.403655 -0.795127 0.993908
v -2.795127 0.596345 0.993908
v -1.403655 -0.795127 0.894518
v -2.795127 0.596345 0.894518
v -1.204873 -0.596345 0.993908
v -2.596345 0.795127 0.993908
v -1.204873 -0.596345 0.894518
v -2.596345 0.795127 0.894518
v -2.198781 0.000000 0.894518
v -2.795127 -0.596345 0.894518
v -2.198781 0.000000 0.993908
v -2.795127 -0.596345 0.993908
v -2.795127 0.795127 0.993908
v -1.204873 -0.795127 0.993908
v -2.596345 -0.795127 0.993908
v -2.000000 -0.198782 0.993908
v -2.596345 -0.795127 0.894518
v -2.000000 -0.198782 0.894518
v -2.099391 -0.099391 0.993908
v -2.795127 -0.795127 0.993908
v -1.801218 -0.000000 0.894517
v -1.204873 0.596345 0.894517
v -1.801218 -0.000000 0.993908
v -1.204873 0.596345 0.993908
v -1.403655 0.795127 0.993908
v -2.000000 0.198782 0.993908
v -1.403655 0.795127 0.894517
v -2.000000 0.198782 0.894517
v -1.900609 0.099391 0.993908
v -1.204873 0.795127 0.993908
v -1.403655 -0.795127 -0.993908
v -2.795127 0.596345 -0.993908
v -1.403655 -0.795127 -0.894518
v -2.795127 0.596345 -0.894518
v -1.204873 -0.596345 -0.993908
v -2.596345 0.795127 -0.993908
v -1.204873 -0.596345 -0.894518
v -2.596345 0.795127 -0.894518
v -2.198781 0.000000 -0.894518
v -2.795127 -0.596345 -0.894518
v -2.198781 0.000000 -0.993908
v -2.795127 -0.596345 -0.993908
v -2.795127 0.795127 -0.993908
v -1.204873 -0.795127 -0.993908
v -2.596345 -0.795127 -0.993908
v -2.000000 -0.198782 -0.993908
v -2.596345 -0.795127 -0.894518
v -2.000000 -0.198782 -0.894518
v -2.099391 -0.099391 -0.993908
v -2.795127 -0.795127 -0.993908
v -1.801218 -0.000000 -0.894517
v -1.204873 0.596345 -0.894517
v -1.801218 -0.000000 -0.993908
v -1.204873 0.596345 -0.993908
v -1.403655 0.795127 -0.993908
v -2.000000 0.198782 -0.993908
v -1.403655 0.795127 -0.894517
v -2.000000 0.198782 -0.894517
v -1.900609 0.099391 -0.993908
v -1.204873 0.795127 -0.993908
v -2.795127 -0.993908 -0.596345
v -1.403655 -0.993908 0.795127
v -2.795127 -0.894517 -0.596345
v -1.403655 -0.894518 0.795127
v -2.596345 -0.993908 -0.795127
v -1.204873 -0.993908 0.596345
v -2.596345 -0.894517 -0.795127
v -1.204873 -0.894518 0.596345
v -2.000000 -0.894518 0.198781
v -2.596345 -0.894518 0.795127
v -2.000000 -0.993908 0.198781
v -2.596345 -0.993908 0.795127
v -1.204873 -0.993908 0.795126
v -2.795127 -0.993908 -0.795127
v -2.795127 -0.993908 0.596345
v -2.198782 -0.993908 -0.000000
v -2.795127 -0.894517 0.596345
v -2.198782 -0.894518 -0.000000
v -2.099391 -0.993908 0.099391
v -2.795126 -0.993908 0.795127
v -2.000000 -0.894517 -0.198782
v -1.403655 -0.894517 -0.795127
v -2.000000 -0.993908 -0.198782
v -1.403655 -0.993908 -0.795127
v -1.204874 -0.993908 -0.596345
v -1.801218 -0.993908 -0.000000
v -1.204874 -0.894517 -0.596345
v -1.801218 -0.894517 -0.000000
v -1.900609 -0.993908 -0.099391
v -1.204874 -0.993908 -0.795127
v -2.795126 0.993908 -0.596345
v -1.403655 0.993908 0.795127
v -2.795126 0.894518 -0.596345
v -1.403655 0.894517 0.795127
v -2.596345 0.993908 -0.795127
v -1.204873 0.993908 0.596345
v -2.596345 0.894518 -0.795127
v -1.204873 0.894517 0.596345
v -2.000000 0.894518 0.198782
v -2.596345 0.894517 0.795127
v -2.000000 0.993908 0.198782
v -2.596345 0.993908 0.795127
v -1.204873 0.993908 0.795127
v -2.795127 0.993908 -0.795126
v -2.795126 0.993908 0.596345
v -2.198782 0.993908 -0.000000
v -2.795126 0.894518 0.596345
v -2.198782 0.894518 -0.000000
v -2.099391 0.993908 0.099391
v -2.795126 0.993908 0.795127
v -2.000000 0.894517 -0.198782
v -1.403655 0.894517 -0.795127
v -2.000000 0.993908 -0.198782
v -1.403655 0.993908 -0.795127
v -1.204873 0.993908 -0.596345
v -1.801218 0.993908 0.000000
v -1.204873 0.894517 -0.596345
v -1.801218 0.894517 0.000000
v -1.900609 0.993908 -0.099391
v -1.204873 0.993908 -0.795127
vn -0.0000 -0.7071 0.7071
vn -0.0000 0.7071 -0.7071
vn 1.0000 -0.0000 -0.0000
vn -0.0000 0.7071 0.7071
vn -0.0000 -0.7071 -0.7071
vn -1.0000 -0.0000 -0.0000
vn -0.0000 1.0000 -0.0000
vn -0.0000 -0.0000 1.0000
vn -0.0000 -0.0000 -1.0000
vn -0.0000 -1.0000 -0.0000
vn -0.7071 -0.7071 -0.0000
vn 0.7071 0.7071 -0.0000
vn -0.7071 0.7071 -0.0000
vn 0.7071 -0.7071 -0.0000
vn -0.7071 -0.0000 0.7071
vn 0.7071 -0.0000 -0.7071
vn 0.7071 -0.0000 0.7071
vn -0.7071 -0.0000 -0.7071
vt 0.595597 0.000821
vt 0.595597 0.280669
vt 0.581462 0.280669
vt 0.581462 0.000821
vt 0.595597 0.282311
vt 0.595597 0.562159
vt 0.581462 0.562159
vt 0.581462 0.282311
vt 0.104050 0.000821
vt 0.104050 0.320648
vt 0.084061 0.300658
vt 0.084061 0.020810
vt 0.750519 0.922063
vt 0.750519 0.802128
vt 0.764654 0.802128
vt 0.764654 0.922063
vt 0.124039 0.020810
vt 0.124039 0.300658
vt 0.095477 0.957467
vt 0.095477 0.837532
vt 0.109612 0.837532
vt 0.109612 0.957467
vt 0.520249 0.802128
vt 0.520249 0.942052
vt 0.500260 0.942052
vt 0.500260 0.822117
vt 0.540238 0.822117
vt 0.540238 0.942052
vt 0.141164 0.837532
vt 0.141164 0.957467
vt 0.127029 0.957467
vt 0.127029 0.837532
vt 0.048149 0.957467
vt 0.048149 0.837532
vt 0.062284 0.837532
vt 0.062283 0.957467
vt 0.728888 0.942052
vt 0.728888 0.802128
vt 0.748878 0.802128
vt 0.748878 0.922063
vt 0.708899 0.922063
vt 0.708899 0.802128
vt 0.099837 0.322289
vt 0.113971 0.322289
vt 0.113971 0.602138
vt 0.099837 0.602138
vt 0.084061 0.322289
vt 0.098195 0.322289
vt 0.098195 0.602138
vt 0.084061 0.602138
vt 0.228910 0.000821
vt 0.248899 0.020810
vt 0.248899 0.300658
vt 0.228910 0.320648
vt 0.766295 0.802128
vt 0.780430 0.802128
vt 0.780430 0.922063
vt 0.766295 0.922063
vt 0.208920 0.020810
vt 0.208920 0.300658
vt 0.797847 0.802128
vt 0.811982 0.802128
vt 0.811982 0.922063
vt 0.797847 0.922063
vt 0.270530 0.942052
vt 0.250540 0.922063
vt 0.250540 0.802128
vt 0.270530 0.802128
vt 0.290519 0.922063
vt 0.290519 0.802128
vt 0.875086 0.922063
vt 0.860952 0.922063
vt 0.860952 0.802128
vt 0.875086 0.802128
vt 0.859310 0.922063
vt 0.845176 0.922063
vt 0.845176 0.802128
vt 0.859310 0.802128
vt 0.603489 0.942052
vt 0.583500 0.922063
vt 0.583500 0.802128
vt 0.603489 0.802128
vt 0.623478 0.922063
vt 0.623478 0.802128
vt 0.983317 0.000821
vt 0.983317 0.228359
vt 0.969095 0.228359
vt 0.969095 0.000821
vt 0.938079 0.800486
vt 0.938079 0.572948
vt 0.952300 0.572948
vt 0.952300 0.800486
vt 0.983403 0.282311
vt 0.983403 0.509849
vt 0.969182 0.509849
vt 0.969182 0.282311
vt 0.888140 0.000821
vt 0.888140 0.228359
vt 0.873919 0.228359
vt 0.873919 0.000821
vt 0.951591 0.000821
vt 0.951591 0.228359
vt 0.937370 0.228359
vt 0.937370 0.000821
vt 0.951678 0.282311
vt 0.951678 0.509849
vt 0.937457 0.509849
vt 0.937457 0.282311
vt 0.399318 0.000821
vt 0.399318 0.285243
vt 0.370876 0.256801
vt 0.370876 0.029263
vt 0.250540 0.571307
vt 0.250540 0.286885
vt 0.278983 0.315327
vt 0.278983 0.542865
vt 0.000821 0.606711
vt 0.000821 0.322289
vt 0.029263 0.350731
vt 0.029263 0.578269
vt 0.519653 0.000821
vt 0.519653 0.285243
vt 0.491211 0.256801
vt 0.491211 0.029263
vt 0.429402 0.000821
vt 0.429402 0.285243
vt 0.400959 0.256801
vt 0.400959 0.029263
vt 0.551378 0.571307
vt 0.551378 0.286885
vt 0.579821 0.315327
vt 0.579821 0.542865
vt 0.431043 0.571307
vt 0.431043 0.286885
vt 0.459485 0.315327
vt 0.459485 0.542865
vt 0.280624 0.571307
vt 0.280624 0.286885
vt 0.309066 0.315327
vt 0.309066 0.542865
vt 0.059347 0.322289
vt 0.059347 0.606711
vt 0.030905 0.578269
vt 0.030905 0.350731
vt 0.310708 0.571307
vt 0.310708 0.286885
vt 0.339150 0.315327
vt 0.339150 0.542865
vt 0.461127 0.571307
vt 0.461127 0.286885
vt 0.489569 0.315327
vt 0.489569 0.542865
vt 0.521295 0.285243
vt 0.521295 0.000821
vt 0.549737 0.029263
vt 0.549737 0.256801
vt 0.459485 0.000821
vt 0.459485 0.285243
vt 0.431043 0.256801
vt 0.431043 0.029263
vt 0.491211 0.571307
vt 0.491211 0.286885
vt 0.519653 0.315327
vt 0.519653 0.542865
vt 0.461127 0.285243
vt 0.461127 0.000821
vt 0.489569 0.029263
vt 0.489569 0.256801
vt 0.369234 0.286885
vt 0.369234 0.571307
vt 0.340792 0.542865
vt 0.340792 0.315327
vt 0.339150 0.000821
vt 0.339150 0.285243
vt 0.310708 0.256801
vt 0.310708 0.029263
vt 0.278983 0.000821
vt 0.278983 0.285243
vt 0.250540 0.256801
vt 0.250540 0.029263
vt 0.340792 0.285243
vt 0.340792 0.000821
vt 0.369234 0.029263
vt 0.369234 0.256801
vt 0.280624 0.285243
vt 0.280624 0.000821
vt 0.309066 0.029263
vt 0.309066 0.256801
vt 0.370876 0.571307
vt 0.370876 0.286885
vt 0.399318 0.315327
vt 0.399318 0.542865
vt 0.551378 0.285243
vt 0.551378 0.000821
vt 0.579821 0.029263
vt 0.579821 0.256801
vt 0.429402 0.286885
vt 0.429402 0.571307
vt 0.400960 0.542865
vt 0.400959 0.315327
vt 0.521295 0.571307
vt 0.521295 0.286885
vt 0.549737 0.315327
vt 0.549737 0.542865
vt 0.708899 0.800486
vt 0.708899 0.572948
vt 0.936437 0.572948
vt 0.936437 0.800486
vt 0.228359 0.608353
vt 0.228359 0.835891
vt 0.000821 0.835891
vt 0.000821 0.608353
vt 0.840552 0.000821
vt 0.840552 0.228359
vt 0.613014 0.228359
vt 0.613014 0.000821
vt 0.478078 0.800486
vt 0.250540 0.800486
vt 0.250540 0.572948
vt 0.478078 0.572948
vt 0.824776 0.282311
vt 0.824776 0.509849
vt 0.597238 0.509849
vt 0.597238 0.282311
vt 0.479720 0.572948
vt 0.707258 0.572948
vt 0.707258 0.800486
vt 0.479720 0.800486
vt 0.969804 0.800486
vt 0.969804 0.572948
vt 0.984025 0.572948
vt 0.984025 0.800486
vt 0.874006 0.509849
vt 0.874006 0.282311
vt 0.888227 0.282311
vt 0.888227 0.509849
vt 0.904003 0.000821
vt 0.904003 0.228359
vt 0.889782 0.228359
vt 0.889782 0.000821
vt 0.244221 0.608353
vt 0.244221 0.835891
vt 0.230000 0.835891
vt 0.230000 0.608353
vt 0.967454 0.000821
vt 0.967454 0.228359
vt 0.953233 0.228359
vt 0.953233 0.000821
vt 0.889869 0.509849
vt 0.889869 0.282311
vt 0.904090 0.282311
vt 0.904090 0.509849
vt 0.953319 0.509849
vt 0.953319 0.282311
vt 0.967540 0.282311
vt 0.967541 0.509849
vt 0.999179 0.000821
vt 0.999179 0.228359
vt 0.984958 0.228359
vt 0.984958 0.000821
vt 0.842194 0.228359
vt 0.842194 0.000821
vt 0.856415 0.000821
vt 0.856415 0.228359
vt 0.953941 0.800486
vt 0.953941 0.572948
vt 0.968162 0.572948
vt 0.968162 0.800486
vt 0.826418 0.509849
vt 0.826418 0.282311
vt 0.840639 0.282311
vt 0.840639 0.509849
vt 0.905645 0.228359
vt 0.905645 0.000821
vt 0.919866 0.000821
vt 0.919866 0.228359
vt 0.921507 0.228359
vt 0.921507 0.000821
vt 0.935728 0.000821
vt 0.935728 0.228359
vt 0.919952 0.282311
vt 0.919952 0.509849
vt 0.905731 0.509849
vt 0.905731 0.282311
vt 0.921594 0.509849
vt 0.921594 0.282311
vt 0.935815 0.282311
vt 0.935815 0.509849
vt 0.856502 0.282311
vt 0.856502 0.509849
vt 0.842280 0.509849
vt 0.842280 0.282311
vt 0.858057 0.228359
vt 0.858057 0.000821
vt 0.872278 0.000821
vt 0.872278 0.228359
vt 0.872364 0.282311
vt 0.872364 0.509849
vt 0.858143 0.509849
vt 0.858143 0.282311
vt 0.183077 0.602138
vt 0.183077 0.322289
vt 0.197211 0.322289
vt 0.197211 0.602138
vt 0.125681 0.602138
vt 0.125681 0.322289
vt 0.139815 0.322289
vt 0.139815 0.602138
vt 0.020810 0.000821
vt 0.020810 0.320648
vt 0.000821 0.300658
vt 0.000821 0.020810
vt 0.078060 0.837532
vt 0.078060 0.957467
vt 0.063925 0.957467
vt 0.063925 0.837532
vt 0.040799 0.020810
vt 0.040799 0.300658
vt 0.938190 0.802128
vt 0.938190 0.922063
vt 0.924056 0.922063
vt 0.924056 0.802128
vt 0.312150 0.942052
vt 0.312150 0.802128
vt 0.332139 0.802128
vt 0.332139 0.922063
vt 0.292160 0.922063
vt 0.292160 0.802128
vt 0.158581 0.957467
vt 0.158581 0.837532
vt 0.172716 0.837532
vt 0.172716 0.957467
vt 0.000821 0.957467
vt 0.000821 0.837532
vt 0.014955 0.837532
vt 0.014955 0.957467
vt 0.561869 0.802128
vt 0.561869 0.942052
vt 0.541880 0.942052
vt 0.541880 0.822117
vt 0.581858 0.822117
vt 0.581858 0.942052
vt 0.224697 0.322289
vt 0.238831 0.322289
vt 0.238831 0.602138
vt 0.224697 0.602138
vt 0.208920 0.322289
vt 0.223055 0.322289
vt 0.223055 0.602138
vt 0.208920 0.602138
vt 0.062430 0.000821
vt 0.082419 0.020810
vt 0.082419 0.300658
vt 0.062430 0.320648
vt 0.156940 0.957467
vt 0.142805 0.957467
vt 0.142805 0.837532
vt 0.156940 0.837532
vt 0.042441 0.020810
vt 0.042441 0.300658
vt 0.796206 0.922063
vt 0.782071 0.922063
vt 0.782071 0.802128
vt 0.796206 0.802128
vt 0.353769 0.942052
vt 0.333780 0.922063
vt 0.333780 0.802128
vt 0.353769 0.802128
vt 0.373759 0.922063
vt 0.373759 0.802128
vt 0.843534 0.922063
vt 0.829399 0.922063
vt 0.829399 0.802128
vt 0.843534 0.802128
vt 0.093836 0.957467
vt 0.079701 0.957467
vt 0.079701 0.837532
vt 0.093836 0.837532
vt 0.686729 0.942052
vt 0.666740 0.922063
vt 0.666740 0.802128
vt 0.686729 0.802128
vt 0.706718 0.922063
vt 0.706718 0.802128
vt 0.611373 0.000821
vt 0.611373 0.280669
vt 0.597238 0.280669
vt 0.597238 0.000821
vt 0.060988 0.602138
vt 0.060988 0.322289
vt 0.075123 0.322289
vt 0.075123 0.602138
vt 0.187290 0.320648
vt 0.187290 0.000821
vt 0.207279 0.020810
vt 0.207279 0.300658
vt 0.939832 0.922063
vt 0.939832 0.802128
vt 0.953966 0.802128
vt 0.953966 0.922063
vt 0.167301 0.300658
vt 0.167301 0.020810
vt 0.892504 0.922063
vt 0.892504 0.802128
vt 0.906638 0.802128
vt 0.906638 0.922063
vt 0.437009 0.802128
vt 0.437009 0.942052
vt 0.417020 0.942052
vt 0.417020 0.822117
vt 0.456999 0.822117
vt 0.456999 0.942052
vt 0.125388 0.837532
vt 0.125388 0.957467
vt 0.111253 0.957467
vt 0.111253 0.837532
vt 0.016597 0.957467
vt 0.016597 0.837532
vt 0.030731 0.837532
vt 0.030731 0.957467
vt 0.478629 0.802128
vt 0.478629 0.942052
vt 0.458640 0.942052
vt 0.458640 0.822117
vt 0.498618 0.822117
vt 0.498619 0.942052
vt 0.181435 0.602138
vt 0.167301 0.602138
vt 0.167301 0.322289
vt 0.181435 0.322289
vt 0.151524 0.322289
vt 0.165659 0.322289
vt 0.165659 0.602138
vt 0.151525 0.602138
vt 0.145670 0.000821
vt 0.165659 0.020810
vt 0.165659 0.300658
vt 0.145670 0.320648
vt 0.908280 0.802128
vt 0.922414 0.802128
vt 0.922414 0.922063
vt 0.908280 0.922063
vt 0.125681 0.020810
vt 0.125681 0.300658
vt 0.827758 0.922063
vt 0.813623 0.922063
vt 0.813623 0.802128
vt 0.827758 0.802128
vt 0.395389 0.942052
vt 0.375400 0.922063
vt 0.375400 0.802128
vt 0.395389 0.802128
vt 0.415379 0.922063
vt 0.415379 0.802128
vt 0.890862 0.922063
vt 0.876728 0.922063
vt 0.876728 0.802128
vt 0.890862 0.802128
vt 0.032373 0.837532
vt 0.046507 0.837532
vt 0.046507 0.957467
vt 0.032373 0.957467
vt 0.645109 0.802128
vt 0.665098 0.822117
vt 0.665098 0.942052
vt 0.645109 0.942052
vt 0.625120 0.822117
vt 0.625120 0.942052
s 0
usemtl Large_Wooden_Box.01
f 1/1/1 2/2/1 4/3/1 3/4/1
f 7/5/2 8/6/2 6/7/2 5/8/2
f 14/9/3 13/10/3 2/11/3 1/12/3
f 12/13/4 11/14/4 9/15/4 10/16/4
f 5/17/3 6/18/3 13/10/3 14/9/3
f 17/19/5 18/20/5 16/21/5 15/22/5
f 20/23/3 19/24/3 11/25/3 12/26/3
f 15/27/3 16/28/3 19/24/3 20/23/3
f 24/29/5 23/30/5 21/31/5 22/32/5
f 27/33/4 28/34/4 26/35/4 25/36/4
f 30/37/3 29/38/3 23/39/3 24/40/3
f 25/41/3 26/42/3 29/38/3 30/37/3
f 31/43/1 33/44/1 34/45/1 32/46/1
f 37/47/2 35/48/2 36/49/2 38/50/2
f 44/51/6 31/52/6 32/53/6 43/54/6
f 42/55/4 40/56/4 39/57/4 41/58/4
f 35/59/6 44/51/6 43/54/6 36/60/6
f 47/61/5 45/62/5 46/63/5 48/64/5
f 50/65/6 42/66/6 41/67/6 49/68/6
f 45/69/6 50/65/6 49/68/6 46/70/6
f 54/71/5 52/72/5 51/73/5 53/74/5
f 57/75/4 55/76/4 56/77/4 58/78/4
f 60/79/6 54/80/6 53/81/6 59/82/6
f 55/83/6 60/79/6 59/82/6 56/84/6
f 81/85/6 82/86/6 105/87/6 106/88/6
f 76/89/7 73/90/7 98/91/7 99/92/7
f 77/93/8 78/94/8 101/95/8 102/96/8
f 72/97/7 69/98/7 93/99/7 95/100/7
f 73/101/3 74/102/3 97/103/3 98/104/3
f 69/105/9 70/106/9 94/107/9 93/108/9
f 61/109/6 62/110/6 70/111/6 69/112/6
f 62/113/6 64/114/6 71/115/6 70/116/6
f 64/117/6 63/118/6 72/119/6 71/120/6
f 63/121/6 61/122/6 69/123/6 72/124/6
f 63/125/9 64/126/9 74/127/9 73/128/9
f 64/129/9 68/130/9 75/131/9 74/132/9
f 68/133/9 67/134/9 76/135/9 75/136/9
f 67/137/9 63/138/9 73/139/9 76/140/9
f 67/141/3 68/142/3 78/143/3 77/144/3
f 68/145/3 66/146/3 79/147/3 78/148/3
f 66/149/3 65/150/3 80/151/3 79/152/3
f 65/153/3 67/154/3 77/155/3 80/156/3
f 65/157/8 66/158/8 82/159/8 81/160/8
f 66/161/8 62/162/8 83/163/8 82/164/8
f 62/165/8 61/166/8 84/167/8 83/168/8
f 61/169/8 65/170/8 81/171/8 84/172/8
f 63/173/10 67/174/10 86/175/10 85/176/10
f 67/177/10 65/178/10 87/179/10 86/180/10
f 65/181/10 61/182/10 88/183/10 87/184/10
f 61/185/10 63/186/10 85/187/10 88/188/10
f 68/189/7 64/190/7 90/191/7 89/192/7
f 64/193/7 62/194/7 91/195/7 90/196/7
f 62/197/7 66/198/7 92/199/7 91/200/7
f 66/201/7 68/202/7 89/203/7 92/204/7
f 93/205/6 94/206/6 96/207/6 95/208/6
f 98/209/9 97/210/9 100/211/9 99/212/9
f 102/213/3 101/214/3 104/215/3 103/216/3
f 106/217/8 105/218/8 108/219/8 107/220/8
f 110/221/10 109/222/10 112/223/10 111/224/10
f 114/225/7 113/226/7 116/227/7 115/228/7
f 70/229/10 71/230/10 96/231/10 94/232/10
f 80/233/7 77/234/7 102/235/7 103/236/7
f 85/237/8 86/238/8 109/239/8 110/240/8
f 74/241/10 75/242/10 100/243/10 97/244/10
f 84/245/7 81/246/7 106/247/7 107/248/7
f 89/249/8 90/250/8 113/251/8 114/252/8
f 71/253/8 72/254/8 95/255/8 96/256/8
f 78/257/10 79/258/10 104/259/10 101/260/10
f 88/261/3 85/262/3 110/263/3 111/264/3
f 75/265/6 76/266/6 99/267/6 100/268/6
f 82/269/10 83/270/10 108/271/10 105/272/10
f 92/273/6 89/274/6 114/275/6 115/276/6
f 79/277/9 80/278/9 103/279/9 104/280/9
f 86/281/6 87/282/6 112/283/6 109/284/6
f 83/285/3 84/286/3 107/287/3 108/288/3
f 90/289/3 91/290/3 116/291/3 113/292/3
f 87/293/9 88/294/9 111/295/9 112/296/9
f 91/297/9 92/298/9 115/299/9 116/300/9
f 117/301/11 118/302/11 120/303/11 119/304/11
f 123/305/12 124/306/12 122/307/12 121/308/12
f 130/309/8 129/310/8 118/311/8 117/312/8
f 128/313/13 127/314/13 125/315/13 126/316/13
f 121/317/8 122/318/8 129/310/8 130/309/8
f 133/319/14 134/320/14 132/321/14 131/322/14
f 136/323/8 135/324/8 127/325/8 128/326/8
f 131/327/8 132/328/8 135/324/8 136/323/8
f 140/329/14 139/330/14 137/331/14 138/332/14
f 143/333/13 144/334/13 142/335/13 141/336/13
f 146/337/8 145/338/8 139/339/8 140/340/8
f 141/341/8 142/342/8 145/338/8 146/337/8
f 147/343/11 149/344/11 150/345/11 148/346/11
f 153/347/12 151/348/12 152/349/12 154/350/12
f 160/351/9 147/352/9 148/353/9 159/354/9
f 158/355/13 156/356/13 155/357/13 157/358/13
f 151/359/9 160/351/9 159/354/9 152/360/9
f 163/361/14 161/362/14 162/363/14 164/364/14
f 166/365/9 158/366/9 157/367/9 165/368/9
f 161/369/9 166/365/9 165/368/9 162/370/9
f 170/371/14 168/372/14 167/373/14 169/374/14
f 173/375/13 171/376/13 172/377/13 174/378/13
f 176/379/9 170/380/9 169/381/9 175/382/9
f 171/383/9 176/379/9 175/382/9 172/384/9
f 177/385/15 178/386/15 180/387/15 179/388/15
f 183/389/16 184/390/16 182/391/16 181/392/16
f 190/393/10 189/394/10 178/395/10 177/396/10
f 188/397/17 187/398/17 185/399/17 186/400/17
f 181/401/10 182/402/10 189/394/10 190/393/10
f 193/403/18 194/404/18 192/405/18 191/406/18
f 196/407/10 195/408/10 187/409/10 188/410/10
f 191/411/10 192/412/10 195/408/10 196/407/10
f 200/413/18 199/414/18 197/415/18 198/416/18
f 203/417/17 204/418/17 202/419/17 201/420/17
f 206/421/10 205/422/10 199/423/10 200/424/10
f 201/425/10 202/426/10 205/422/10 206/421/10
f 207/427/15 209/428/15 210/429/15 208/430/15
f 213/431/16 211/432/16 212/433/16 214/434/16
f 220/435/7 207/436/7 208/437/7 219/438/7
f 218/439/17 216/440/17 215/441/17 217/442/17
f 211/443/7 220/435/7 219/438/7 212/444/7
f 223/445/18 221/446/18 222/447/18 224/448/18
f 226/449/7 218/450/7 217/451/7 225/452/7
f 221/453/7 226/449/7 225/452/7 222/454/7
f 230/455/18 228/456/18 227/457/18 229/458/18
f 233/459/17 231/460/17 232/461/17 234/462/17
f 236/463/7 230/464/7 229/465/7 235/466/7
f 231/467/7 236/463/7 235/466/7 232/468/7
o Small_Wooden_Box.01
v 2.021714 -0.417371 -0.313028
v 2.021714 0.313028 0.417371
v 1.969542 -0.417371 -0.313028
v 1.969542 0.313028 0.417371
v 2.021714 -0.313028 -0.417371
v 2.021714 0.417371 0.313028
v 1.969542 -0.313028 -0.417371
v 1.969542 0.417371 0.313028
v 1.969542 0.000000 0.104343
v 1.969542 -0.313028 0.417371
v 2.021714 0.000000 0.104343
v 2.021714 -0.313028 0.417371
v 2.021714 0.417371 0.417371
v 2.021714 -0.417371 -0.417371
v 2.021714 -0.417371 0.313028
v 2.021714 -0.104343 -0.000000
v 1.969542 -0.417371 0.313028
v 1.969542 -0.104343 -0.000000
v 2.021714 -0.052171 0.052171
v 2.021714 -0.417371 0.417371
v 1.969542 -0.000000 -0.104343
v 1.969542 0.313028 -0.417371
v 2.021714 -0.000000 -0.104343
v 2.021714 0.313028 -0.417371
v 2.021714 0.417371 -0.313028
v 2.021714 0.104343 -0.000000
v 1.969542 0.417371 -0.313028
v 1.969542 0.104343 -0.000000
v 2.021714 0.052171 -0.052171
v 2.021714 0.417371 -0.417371
v 0.978286 -0.417371 -0.313028
v 0.978286 0.313028 0.417371
v 1.030458 -0.417371 -0.313028
v 1.030458 0.313028 0.417371
v 0.978286 -0.313028 -0.417371
v 0.978286 0.417371 0.313028
v 1.030458 -0.313028 -0.417371
v 1.030458 0.417371 0.313028
v 1.030458 0.000000 0.104343
v 1.030458 -0.313028 0.417371
v 0.978286 0.000000 0.104343
v 0.978286 -0.313028 0.417371
v 0.978286 0.417371 0.417371
v 0.978286 -0.417371 -0.417371
v 0.978286 -0.417371 0.313028
v 0.978286 -0.104343 -0.000000
v 1.030458 -0.417371 0.313028
v 1.030458 -0.104343 -0.000000
v 0.978286 -0.052171 0.052171
v 0.978286 -0.417371 0.417371
v 1.030458 -0.000000 -0.104343
v 1.030458 0.313028 -0.417371
v 0.978286 -0.000000 -0.104343
v 0.978286 0.313028 -0.417371
v 0.978286 0.417371 -0.313028
v 0.978286 0.104343 0.000000
v 1.030458 0.417371 -0.313028
v 1.030458 0.104343 0.000000
v 0.978286 0.052171 -0.052171
v 0.978286 0.417371 -0.417371
v 0.975089 -0.524911 0.524911
v 0.975089 0.524911 0.524911
v 0.975089 -0.524911 -0.524911
v 0.975089 0.524911 -0.524911
v 2.024911 -0.524911 0.524911
v 2.024911 0.524911 0.524911
v 2.024911 -0.524911 -0.524911
v 2.024911 0.524911 -0.524911
v 0.975089 -0.419929 0.419929
v 0.975089 0.419929 0.419929
v 0.975089 0.419929 -0.419929
v 0.975089 -0.419929 -0.419929
v 1.080071 -0.419929 -0.524911
v 1.080071 0.419929 -0.524911
v 1.919929 0.419929 -0.524911
v 1.919929 -0.419929 -0.524911
v 2.024911 -0.419929 -0.419929
v 2.024911 0.419929 -0.419929
v 2.024911 0.419929 0.419929
v 2.024911 -0.419929 0.419929
v 1.919929 -0.419929 0.524911
v 1.919929 0.419929 0.524911
v 1.080071 0.419929 0.524911
v 1.080071 -0.419929 0.524911
v 1.080071 -0.524911 -0.419929
v 1.919929 -0.524911 -0.419929
v 1.919929 -0.524911 0.419929
v 1.080071 -0.524911 0.419929
v 1.919929 0.524911 -0.419929
v 1.080071 0.524911 -0.419929
v 1.080071 0.524911 0.419929
v 1.919929 0.524911 0.419929
v 1.027580 -0.419929 0.419929
v 1.027580 0.419929 0.419929
v 1.027580 -0.419929 -0.419929
v 1.027580 0.419929 -0.419929
v 1.080071 0.419929 -0.472420
v 1.080071 -0.419929 -0.472420
v 1.919929 -0.419929 -0.472420
v 1.919929 0.419929 -0.472420
v 1.972420 0.419929 -0.419929
v 1.972420 -0.419929 -0.419929
v 1.972420 -0.419929 0.419929
v 1.972420 0.419929 0.419929
v 1.919929 0.419929 0.472420
v 1.919929 -0.419929 0.472420
v 1.080071 -0.419929 0.472420
v 1.080071 0.419929 0.472420
v 1.919929 -0.472420 -0.419929
v 1.080071 -0.472420 -0.419929
v 1.080071 -0.472420 0.419929
v 1.919929 -0.472420 0.419929
v 1.080071 0.472420 -0.419929
v 1.919929 0.472420 -0.419929
v 1.919929 0.472420 0.419929
v 1.080071 0.472420 0.419929
v 1.813028 -0.417371 0.521714
v 1.082629 0.313028 0.521714
v 1.813028 -0.417371 0.469542
v 1.082629 0.313028 0.469542
v 1.917371 -0.313028 0.521714
v 1.186972 0.417371 0.521714
v 1.917371 -0.313028 0.469542
v 1.186972 0.417371 0.469542
v 1.395657 0.000000 0.469542
v 1.082629 -0.313028 0.469542
v 1.395657 0.000000 0.521714
v 1.082629 -0.313028 0.521714
v 1.082629 0.417371 0.521714
v 1.917371 -0.417371 0.521714
v 1.186972 -0.417371 0.521714
v 1.500000 -0.104343 0.521714
v 1.186972 -0.417371 0.469542
v 1.500000 -0.104343 0.469542
v 1.447829 -0.052171 0.521714
v 1.082629 -0.417371 0.521714
v 1.604343 -0.000000 0.469542
v 1.917371 0.313028 0.469542
v 1.604343 -0.000000 0.521714
v 1.917371 0.313028 0.521714
v 1.813028 0.417371 0.521714
v 1.500000 0.104343 0.521714
v 1.813028 0.417371 0.469542
v 1.500000 0.104343 0.469542
v 1.552171 0.052171 0.521714
v 1.917371 0.417371 0.521714
v 1.813028 -0.417371 -0.521714
v 1.082629 0.313028 -0.521714
v 1.813028 -0.417371 -0.469542
v 1.082629 0.313028 -0.469542
v 1.917371 -0.313028 -0.521714
v 1.186972 0.417371 -0.521714
v 1.917371 -0.313028 -0.469542
v 1.186972 0.417371 -0.469542
v 1.395657 0.000000 -0.469542
v 1.082629 -0.313028 -0.469542
v 1.395657 0.000000 -0.521714
v 1.082629 -0.313028 -0.521714
v 1.082629 0.417371 -0.521714
v 1.917371 -0.417371 -0.521714
v 1.186972 -0.417371 -0.521714
v 1.500000 -0.104343 -0.521714
v 1.186972 -0.417371 -0.469542
v 1.500000 -0.104343 -0.469542
v 1.447829 -0.052171 -0.521714
v 1.082629 -0.417371 -0.521714
v 1.604343 -0.000000 -0.469542
v 1.917371 0.313028 -0.469542
v 1.604343 -0.000000 -0.521714
v 1.917371 0.313028 -0.521714
v 1.813028 0.417371 -0.521714
v 1.500000 0.104343 -0.521714
v 1.813028 0.417371 -0.469542
v 1.500000 0.104343 -0.469542
v 1.552171 0.052171 -0.521714
v 1.917371 0.417371 -0.521714
v 1.082629 -0.521714 -0.313028
v 1.813028 -0.521714 0.417371
v 1.082629 -0.469542 -0.313028
v 1.813028 -0.469542 0.417371
v 1.186972 -0.521714 -0.417371
v 1.917371 -0.521714 0.313028
v 1.186972 -0.469542 -0.417371
v 1.917371 -0.469542 0.313028
v 1.500000 -0.469542 0.104343
v 1.186972 -0.469542 0.417371
v 1.500000 -0.521714 0.104343
v 1.186972 -0.521714 0.417371
v 1.917371 -0.521714 0.417371
v 1.082629 -0.521714 -0.417371
v 1.082629 -0.521714 0.313028
v 1.395657 -0.521714 -0.000000
v 1.082629 -0.469542 0.313028
v 1.395657 -0.469542 -0.000000
v 1.447829 -0.521714 0.052171
v 1.082629 -0.521714 0.417371
v 1.500000 -0.469542 -0.104343
v 1.813028 -0.469542 -0.417371
v 1.500000 -0.521714 -0.104343
v 1.813028 -0.521714 -0.417371
v 1.917371 -0.521714 -0.313028
v 1.604343 -0.521714 -0.000000
v 1.917371 -0.469542 -0.313028
v 1.604343 -0.469542 -0.000000
v 1.552171 -0.521714 -0.052171
v 1.917371 -0.521714 -0.417371
v 1.082629 0.521714 -0.313028
v 1.813028 0.521714 0.417371
v 1.082629 0.469542 -0.313028
v 1.813028 0.469542 0.417371
v 1.186972 0.521714 -0.417371
v 1.917371 0.521714 0.313028
v 1.186972 0.469542 -0.417371
v 1.917371 0.469542 0.313028
v 1.500000 0.469542 0.104343
v 1.186972 0.469542 0.417371
v 1.500000 0.521714 0.104343
v 1.186972 0.521714 0.417371
v 1.917371 0.521714 0.417371
v 1.082629 0.521714 -0.417371
v 1.082629 0.521714 0.313028
v 1.395657 0.521714 -0.000000
v 1.082629 0.469542 0.313028
v 1.395657 0.469542 -0.000000
v 1.447829 0.521714 0.052171
v 1.082629 0.521714 0.417371
v 1.500000 0.469542 -0.104343
v 1.813028 0.469542 -0.417371
v 1.500000 0.521714 -0.104343
v 1.813028 0.521714 -0.417371
v 1.917371 0.521714 -0.313028
v 1.604343 0.521714 0.000000
v 1.917371 0.469542 -0.313028
v 1.604343 0.469542 0.000000
v 1.552171 0.521714 -0.052171
v 1.917371 0.521714 -0.417371
vn -0.0000 -0.7071 0.7071
vn -0.0000 0.7071 -0.7071
vn 1.0000 -0.0000 -0.0000
vn -0.0000 0.7071 0.7071
vn -0.0000 -0.7071 -0.7071
vn -1.0000 -0.0000 -0.0000
vn -0.0000 1.0000 -0.0000
vn -0.0000 -0.0000 1.0000
vn -0.0000 -0.0000 -1.0000
vn -0.0000 -1.0000 -0.0000
vn -0.7071 -0.7071 -0.0000
vn 0.7071 0.7071 -0.0000
vn -0.7071 0.7071 -0.0000
vn 0.7071 -0.7071 -0.0000
vn -0.7071 -0.0000 0.7071
vn 0.7071 -0.0000 -0.7071
vn 0.7071 -0.0000 0.7071
vn -0.7071 -0.0000 -0.7071
vt 0.595597 0.000821
vt 0.595597 0.280669
vt 0.581462 0.280669
vt 0.581462 0.000821
vt 0.595597 0.282311
vt 0.595597 0.562159
vt 0.581462 0.562159
vt 0.581462 0.282311
vt 0.104050 0.000821
vt 0.104050 0.320648
vt 0.084061 0.300658
vt 0.084061 0.020810
vt 0.750519 0.922063
vt 0.750519 0.802128
vt 0.764654 0.802128
vt 0.764654 0.922063
vt 0.124039 0.020810
vt 0.124039 0.300658
vt 0.095477 0.957467
vt 0.095477 0.837532
vt 0.109612 0.837532
vt 0.109612 0.957467
vt 0.520249 0.802128
vt 0.520249 0.942052
vt 0.500260 0.942052
vt 0.500260 0.822117
vt 0.540238 0.822117
vt 0.540238 0.942052
vt 0.141164 0.837532
vt 0.141164 0.957467
vt 0.127029 0.957467
vt 0.127029 0.837532
vt 0.048149 0.957467
vt 0.048149 0.837532
vt 0.062284 0.837532
vt 0.062283 0.957467
vt 0.728888 0.942052
vt 0.728888 0.802128
vt 0.748878 0.802128
vt 0.748878 0.922063
vt 0.708899 0.922063
vt 0.708899 0.802128
vt 0.099837 0.322289
vt 0.113971 0.322289
vt 0.113971 0.602138
vt 0.099837 0.602138
vt 0.084061 0.322289
vt 0.098195 0.322289
vt 0.098195 0.602138
vt 0.084061 0.602138
vt 0.228910 0.000821
vt 0.248899 0.020810
vt 0.248899 0.300658
vt 0.228910 0.320648
vt 0.766295 0.802128
vt 0.780430 0.802128
vt 0.780430 0.922063
vt 0.766295 0.922063
vt 0.208920 0.020810
vt 0.208920 0.300658
vt 0.797847 0.802128
vt 0.811982 0.802128
vt 0.811982 0.922063
vt 0.797847 0.922063
vt 0.270530 0.942052
vt 0.250540 0.922063
vt 0.250540 0.802128
vt 0.270530 0.802128
vt 0.290519 0.922063
vt 0.290519 0.802128
vt 0.875086 0.922063
vt 0.860952 0.922063
vt 0.860952 0.802128
vt 0.875086 0.802128
vt 0.859310 0.922063
vt 0.845176 0.922063
vt 0.845176 0.802128
vt 0.859310 0.802128
vt 0.603489 0.942052
vt 0.583500 0.922063
vt 0.583500 0.802128
vt 0.603489 0.802128
vt 0.623478 0.922063
vt 0.623478 0.802128
vt 0.983317 0.000821
vt 0.983317 0.228359
vt 0.969095 0.228359
vt 0.969095 0.000821
vt 0.938079 0.800486
vt 0.938079 0.572948
vt 0.952300 0.572948
vt 0.952300 0.800486
vt 0.983403 0.282311
vt 0.983403 0.509849
vt 0.969182 0.509849
vt 0.969182 0.282311
vt 0.888140 0.000821
vt 0.888140 0.228359
vt 0.873919 0.228359
vt 0.873919 0.000821
vt 0.951591 0.000821
vt 0.951591 0.228359
vt 0.937370 0.228359
vt 0.937370 0.000821
vt 0.951678 0.282311
vt 0.951678 0.509849
vt 0.937457 0.509849
vt 0.937457 0.282311
vt 0.399318 0.000821
vt 0.399318 0.285243
vt 0.370876 0.256801
vt 0.370876 0.029263
vt 0.250540 0.571307
vt 0.250540 0.286885
vt 0.278983 0.315327
vt 0.278983 0.542865
vt 0.000821 0.606711
vt 0.000821 0.322289
vt 0.029263 0.350731
vt 0.029263 0.578269
vt 0.519653 0.000821
vt 0.519653 0.285243
vt 0.491211 0.256801
vt 0.491211 0.029263
vt 0.429402 0.000821
vt 0.429402 0.285243
vt 0.400959 0.256801
vt 0.400959 0.029263
vt 0.551378 0.571307
vt 0.551378 0.286885
vt 0.579821 0.315327
vt 0.579821 0.542865
vt 0.431043 0.571307
vt 0.431043 0.286885
vt 0.459485 0.315327
vt 0.459485 0.542865
vt 0.280624 0.571307
vt 0.280624 0.286885
vt 0.309066 0.315327
vt 0.309066 0.542865
vt 0.059347 0.322289
vt 0.059347 0.606711
vt 0.030905 0.578269
vt 0.030905 0.350731
vt 0.310708 0.571307
vt 0.310708 0.286885
vt 0.339150 0.315327
vt 0.339150 0.542865
vt 0.461127 0.571307
vt 0.461127 0.286885
vt 0.489569 0.315327
vt 0.489569 0.542865
vt 0.521295 0.285243
vt 0.521295 0.000821
vt 0.549737 0.029263
vt 0.549737 0.256801
vt 0.459485 0.000821
vt 0.459485 0.285243
vt 0.431043 0.256801
vt 0.431043 0.029263
vt 0.491211 0.571307
vt 0.491211 0.286885
vt 0.519653 0.315327
vt 0.519653 0.542865
vt 0.461127 0.285243
vt 0.461127 0.000821
vt 0.489569 0.029263
vt 0.489569 0.256801
vt 0.369234 0.286885
vt 0.369234 0.571307
vt 0.340792 0.542865
vt 0.340792 0.315327
vt 0.339150 0.000821
vt 0.339150 0.285243
vt 0.310708 0.256801
vt 0.310708 0.029263
vt 0.278983 0.000821
vt 0.278983 0.285243
vt 0.250540 0.256801
vt 0.250540 0.029263
vt 0.340792 0.285243
vt 0.340792 0.000821
vt 0.369234 0.029263
vt 0.369234 0.256801
vt 0.280624 0.285243
vt 0.280624 0.000821
vt 0.309066 0.029263
vt 0.309066 0.256801
vt 0.370876 0.571307
vt 0.370876 0.286885
vt 0.399318 0.315327
vt 0.399318 0.542865
vt 0.551378 0.285243
vt 0.551378 0.000821
vt 0.579821 0.029263
vt 0.579821 0.256801
vt 0.429402 0.286885
vt 0.429402 0.571307
vt 0.400960 0.542865
vt 0.400959 0.315327
vt 0.521295 0.571307
vt 0.521295 0.286885
vt 0.549737 0.315327
vt 0.549737 0.542865
vt 0.708899 0.800486
vt 0.708899 0.572948
vt 0.936437 0.572948
vt 0.936437 0.800486
vt 0.228359 0.608353
vt 0.228359 0.835891
vt 0.000821 0.835891
vt 0.000821 0.608353
vt 0.840552 0.000821
vt 0.840552 0.228359
vt 0.613014 0.228359
vt 0.613014 0.000821
vt 0.478078 0.800486
vt 0.250540 0.800486
vt 0.250540 0.572948
vt 0.478078 0.572948
vt 0.824776 0.282311
vt 0.824776 0.509849
vt 0.597238 0.509849
vt 0.597238 0.282311
vt 0.479720 0.572948
vt 0.707258 0.572948
vt 0.707258 0.800486
vt 0.479720 0.800486
vt 0.969804 0.800486
vt 0.969804 0.572948
vt 0.984025 0.572948
vt 0.984025 0.800486
vt 0.874006 0.509849
vt 0.874006 0.282311
vt 0.888227 0.282311
vt 0.888227 0.509849
vt 0.904003 0.000821
vt 0.904003 0.228359
vt 0.889782 0.228359
vt 0.889782 0.000821
vt 0.244221 0.608353
vt 0.244221 0.835891
vt 0.230000 0.835891
vt 0.230000 0.608353
vt 0.967454 0.000821
vt 0.967454 0.228359
vt 0.953233 0.228359
vt 0.953233 0.000821
vt 0.889869 0.509849
vt 0.889869 0.282311
vt 0.904090 0.282311
vt 0.904090 0.509849
vt 0.953319 0.509849
vt 0.953319 0.282311
vt 0.967540 0.282311
vt 0.967541 0.509849
vt 0.999179 0.000821
vt 0.999179 0.228359
vt 0.984958 0.228359
vt 0.984958 0.000821
vt 0.842194 0.228359
vt 0.842194 0.000821
vt 0.856415 0.000821
vt 0.856415 0.228359
vt 0.953941 0.800486
vt 0.953941 0.572948
vt 0.968162 0.572948
vt 0.968162 0.800486
vt 0.826418 0.509849
vt 0.826418 0.282311
vt 0.840639 0.282311
vt 0.840639 0.509849
vt 0.905645 0.228359
vt 0.905645 0.000821
vt 0.919866 0.000821
vt 0.919866 0.228359
vt 0.921507 0.228359
vt 0.921507 0.000821
vt 0.935728 0.000821
vt 0.935728 0.228359
vt 0.919952 0.282311
vt 0.919952 0.509849
vt 0.905731 0.509849
vt 0.905731 0.282311
vt 0.921594 0.509849
vt 0.921594 0.282311
vt 0.935815 0.282311
vt 0.935815 0.509849
vt 0.856502 0.282311
vt 0.856502 0.509849
vt 0.842280 0.509849
vt 0.842280 0.282311
vt 0.858057 0.228359
vt 0.858057 0.000821
vt 0.872278 0.000821
vt 0.872278 0.228359
vt 0.872364 0.282311
vt 0.872364 0.509849
vt 0.858143 0.509849
vt 0.858143 0.282311
vt 0.183077 0.602138
vt 0.183077 0.322289
vt 0.197211 0.322289
vt 0.197211 0.602138
vt 0.125681 0.602138
vt 0.125681 0.322289
vt 0.139815 0.322289
vt 0.139815 0.602138
vt 0.020810 0.000821
vt 0.020810 0.320648
vt 0.000821 0.300658
vt 0.000821 0.020810
vt 0.078060 0.837532
vt 0.078060 0.957467
vt 0.063925 0.957467
vt 0.063925 0.837532
vt 0.040799 0.020810
vt 0.040799 0.300658
vt 0.938190 0.802128
vt 0.938190 0.922063
vt 0.924056 0.922063
vt 0.924056 0.802128
vt 0.312150 0.942052
vt 0.312150 0.802128
vt 0.332139 0.802128
vt 0.332139 0.922063
vt 0.292160 0.922063
vt 0.292160 0.802128
vt 0.158581 0.957467
vt 0.158581 0.837532
vt 0.172716 0.837532
vt 0.172716 0.957467
vt 0.000821 0.957467
vt 0.000821 0.837532
vt 0.014955 0.837532
vt 0.014955 0.957467
vt 0.561869 0.802128
vt 0.561869 0.942052
vt 0.541880 0.942052
vt 0.541880 0.822117
vt 0.581858 0.822117
vt 0.581858 0.942052
vt 0.224697 0.322289
vt 0.238831 0.322289
vt 0.238831 0.602138
vt 0.224697 0.602138
vt 0.208920 0.322289
vt 0.223055 0.322289
vt 0.223055 0.602138
vt 0.208920 0.602138
vt 0.062430 0.000821
vt 0.082419 0.020810
vt 0.082419 0.300658
vt 0.062430 0.320648
vt 0.156940 0.957467
vt 0.142805 0.957467
vt 0.142805 0.837532
vt 0.156940 0.837532
vt 0.042441 0.020810
vt 0.042441 0.300658
vt 0.796206 0.922063
vt 0.782071 0.922063
vt 0.782071 0.802128
vt 0.796206 0.802128
vt 0.353769 0.942052
vt 0.333780 0.922063
vt 0.333780 0.802128
vt 0.353769 0.802128
vt 0.373759 0.922063
vt 0.373759 0.802128
vt 0.843534 0.922063
vt 0.829399 0.922063
vt 0.829399 0.802128
vt 0.843534 0.802128
vt 0.093836 0.957467
vt 0.079701 0.957467
vt 0.079701 0.837532
vt 0.093836 0.837532
vt 0.686729 0.942052
vt 0.666740 0.922063
vt 0.666740 0.802128
vt 0.686729 0.802128
vt 0.706718 0.922063
vt 0.706718 0.802128
vt 0.611373 0.000821
vt 0.611373 0.280669
vt 0.597238 0.280669
vt 0.597238 0.000821
vt 0.060988 0.602138
vt 0.060988 0.322289
vt 0.075123 0.322289
vt 0.075123 0.602138
vt 0.187290 0.320648
vt 0.187290 0.000821
vt 0.207279 0.020810
vt 0.207279 0.300658
vt 0.939832 0.922063
vt 0.939832 0.802128
vt 0.953966 0.802128
vt 0.953966 0.922063
vt 0.167301 0.300658
vt 0.167301 0.020810
vt 0.892504 0.922063
vt 0.892504 0.802128
vt 0.906638 0.802128
vt 0.906638 0.922063
vt 0.437009 0.802128
vt 0.437009 0.942052
vt 0.417020 0.942052
vt 0.417020 0.822117
vt 0.456999 0.822117
vt 0.456999 0.942052
vt 0.125388 0.837532
vt 0.125388 0.957467
vt 0.111253 0.957467
vt 0.111253 0.837532
vt 0.016597 0.957467
vt 0.016597 0.837532
vt 0.030731 0.837532
vt 0.030731 0.957467
vt 0.478629 0.802128
vt 0.478629 0.942052
vt 0.458640 0.942052
vt 0.458640 0.822117
vt 0.498618 0.822117
vt 0.498619 0.942052
vt 0.181435 0.602138
vt 0.167301 0.602138
vt 0.167301 0.322289
vt 0.181435 0.322289
vt 0.151524 0.322289
vt 0.165659 0.322289
vt 0.165659 0.602138
vt 0.151525 0.602138
vt 0.145670 0.000821
vt 0.165659 0.020810
vt 0.165659 0.300658
vt 0.145670 0.320648
vt 0.908280 0.802128
vt 0.922414 0.802128
vt 0.922414 0.922063
vt 0.908280 0.922063
vt 0.125681 0.020810
vt 0.125681 0.300658
vt 0.827758 0.922063
vt 0.813623 0.922063
vt 0.813623 0.802128
vt 0.827758 0.802128
vt 0.395389 0.942052
vt 0.375400 0.922063
vt 0.375400 0.802128
vt 0.395389 0.802128
vt 0.415379 0.922063
vt 0.415379 0.802128
vt 0.890862 0.922063
vt 0.876728 0.922063
vt 0.876728 0.802128
vt 0.890862 0.802128
vt 0.032373 0.837532
vt 0.046507 0.837532
vt 0.046507 0.957467
vt 0.032373 0.957467
vt 0.645109 0.802128
vt 0.665098 0.822117
vt 0.665098 0.942052
vt 0.645109 0.942052
vt 0.625120 0.822117
vt 0.625120 0.942052
s 0
usemtl Small_Wooden_Box.01
f 237/469/19 238/470/19 240/471/19 239/472/19
f 243/473/20 244/474/20 242/475/20 241/476/20
f 250/477/21 249/478/21 238/479/21 237/480/21
f 248/481/22 247/482/22 245/483/22 246/484/22
f 241/485/21 242/486/21 249/478/21 250/477/21
f 253/487/23 254/488/23 252/489/23 251/490/23
f 256/491/21 255/492/21 247/493/21 248/494/21
f 251/495/21 252/496/21 255/492/21 256/491/21
f 260/497/23 259/498/23 257/499/23 258/500/23
f 263/501/22 264/502/22 262/503/22 261/504/22
f 266/505/21 265/506/21 259/507/21 260/508/21
f 261/509/21 262/510/21 265/506/21 266/505/21
f 267/511/19 269/512/19 270/513/19 268/514/19
f 273/515/20 271/516/20 272/517/20 274/518/20
f 280/519/24 267/520/24 268/521/24 279/522/24
f 278/523/22 276/524/22 275/525/22 277/526/22
f 271/527/24 280/519/24 279/522/24 272/528/24
f 283/529/23 281/530/23 282/531/23 284/532/23
f 286/533/24 278/534/24 277/535/24 285/536/24
f 281/537/24 286/533/24 285/536/24 282/538/24
f 290/539/23 288/540/23 287/541/23 289/542/23
f 293/543/22 291/544/22 292/545/22 294/546/22
f 296/547/24 290/548/24 289/549/24 295/550/24
f 291/551/24 296/547/24 295/550/24 292/552/24
f 317/553/24 318/554/24 341/555/24 342/556/24
f 312/557/25 309/558/25 334/559/25 335/560/25
f 313/561/26 314/562/26 337/563/26 338/564/26
f 308/565/25 305/566/25 329/567/25 331/568/25
f 309/569/21 310/570/21 333/571/21 334/572/21
f 305/573/27 306/574/27 330/575/27 329/576/27
f 297/577/24 298/578/24 306/579/24 305/580/24
f 298/581/24 300/582/24 307/583/24 306/584/24
f 300/585/24 299/586/24 308/587/24 307/588/24
f 299/589/24 297/590/24 305/591/24 308/592/24
f 299/593/27 300/594/27 310/595/27 309/596/27
f 300/597/27 304/598/27 311/599/27 310/600/27
f 304/601/27 303/602/27 312/603/27 311/604/27
f 303/605/27 299/606/27 309/607/27 312/608/27
f 303/609/21 304/610/21 314/611/21 313/612/21
f 304/613/21 302/614/21 315/615/21 314/616/21
f 302/617/21 301/618/21 316/619/21 315/620/21
f 301/621/21 303/622/21 313/623/21 316/624/21
f 301/625/26 302/626/26 318/627/26 317/628/26
f 302/629/26 298/630/26 319/631/26 318/632/26
f 298/633/26 297/634/26 320/635/26 319/636/26
f 297/637/26 301/638/26 317/639/26 320/640/26
f 299/641/28 303/642/28 322/643/28 321/644/28
f 303/645/28 301/646/28 323/647/28 322/648/28
f 301/649/28 297/650/28 324/651/28 323/652/28
f 297/653/28 299/654/28 321/655/28 324/656/28
f 304/657/25 300/658/25 326/659/25 325/660/25
f 300/661/25 298/662/25 327/663/25 326/664/25
f 298/665/25 302/666/25 328/667/25 327/668/25
f 302/669/25 304/670/25 325/671/25 328/672/25
f 329/673/24 330/674/24 332/675/24 331/676/24
f 334/677/27 333/678/27 336/679/27 335/680/27
f 338/681/21 337/682/21 340/683/21 339/684/21
f 342/685/26 341/686/26 344/687/26 343/688/26
f 346/689/28 345/690/28 348/691/28 347/692/28
f 350/693/25 349/694/25 352/695/25 351/696/25
f 306/697/28 307/698/28 332/699/28 330/700/28
f 316/701/25 313/702/25 338/703/25 339/704/25
f 321/705/26 322/706/26 345/707/26 346/708/26
f 310/709/28 311/710/28 336/711/28 333/712/28
f 320/713/25 317/714/25 342/715/25 343/716/25
f 325/717/26 326/718/26 349/719/26 350/720/26
f 307/721/26 308/722/26 331/723/26 332/724/26
f 314/725/28 315/726/28 340/727/28 337/728/28
f 324/729/21 321/730/21 346/731/21 347/732/21
f 311/733/24 312/734/24 335/735/24 336/736/24
f 318/737/28 319/738/28 344/739/28 341/740/28
f 328/741/24 325/742/24 350/743/24 351/744/24
f 315/745/27 316/746/27 339/747/27 340/748/27
f 322/749/24 323/750/24 348/751/24 345/752/24
f 319/753/21 320/754/21 343/755/21 344/756/21
f 326/757/21 327/758/21 352/759/21 349/760/21
f 323/761/27 324/762/27 347/763/27 348/764/27
f 327/765/27 328/766/27 351/767/27 352/768/27
f 353/769/29 354/770/29 356/771/29 355/772/29
f 359/773/30 360/774/30 358/775/30 357/776/30
f 366/777/26 365/778/26 354/779/26 353/780/26
f 364/781/31 363/782/31 361/783/31 362/784/31
f 357/785/26 358/786/26 365/778/26 366/777/26
f 369/787/32 370/788/32 368/789/32 367/790/32
f 372/791/26 371/792/26 363/793/26 364/794/26
f 367/795/26 368/796/26 371/792/26 372/791/26
f 376/797/32 375/798/32 373/799/32 374/800/32
f 379/801/31 380/802/31 378/803/31 377/804/31
f 382/805/26 381/806/26 375/807/26 376/808/26
f 377/809/26 378/810/26 381/806/26 382/805/26
f 383/811/29 385/812/29 386/813/29 384/814/29
f 389/815/30 387/816/30 388/817/30 390/818/30
f 396/819/27 383/820/27 384/821/27 395/822/27
f 394/823/31 392/824/31 391/825/31 393/826/31
f 387/827/27 396/819/27 395/822/27 388/828/27
f 399/829/32 397/830/32 398/831/32 400/832/32
f 402/833/27 394/834/27 393/835/27 401/836/27
f 397/837/27 402/833/27 401/836/27 398/838/27
f 406/839/32 404/840/32 403/841/32 405/842/32
f 409/843/31 407/844/31 408/845/31 410/846/31
f 412/847/27 406/848/27 405/849/27 411/850/27
f 407/851/27 412/847/27 411/850/27 408/852/27
f 413/853/33 414/854/33 416/855/33 415/856/33
f 419/857/34 420/858/34 418/859/34 417/860/34
f 426/861/28 425/862/28 414/863/28 413/864/28
f 424/865/35 423/866/35 421/867/35 422/868/35
f 417/869/28 418/870/28 425/862/28 426/861/28
f 429/871/36 430/872/36 428/873/36 427/874/36
f 432/875/28 431/876/28 423/877/28 424/878/28
f 427/879/28 428/880/28 431/876/28 432/875/28
f 436/881/36 435/882/36 433/883/36 434/884/36
f 439/885/35 440/886/35 438/887/35 437/888/35
f 442/889/28 441/890/28 435/891/28 436/892/28
f 437/893/28 438/894/28 441/890/28 442/889/28
f 443/895/33 445/896/33 446/897/33 444/898/33
f 449/899/34 447/900/34 448/901/34 450/902/34
f 456/903/25 443/904/25 444/905/25 455/906/25
f 454/907/35 452/908/35 451/909/35 453/910/35
f 447/911/25 456/903/25 455/906/25 448/912/25
f 459/913/36 457/914/36 458/915/36 460/916/36
f 462/917/25 454/918/25 453/919/25 461/920/25
f 457/921/25 462/917/25 461/920/25 458/922/25
f 466/923/36 464/924/36 463/925/36 465/926/36
f 469/927/35 467/928/35 468/929/35 470/930/35
f 472/931/25 466/932/25 465/933/25 471/934/25
f 467/935/25 472/931/25 471/934/25 468/936/25
o Medium_Wooden_Box.01
v 0.754916 -0.603933 -0.452950
v 0.754916 0.452950 0.603933
v 0.679425 -0.603933 -0.452950
v 0.679425 0.452950 0.603933
v 0.754916 -0.452950 -0.603933
v 0.754916 0.603933 0.452950
v 0.679425 -0.452950 -0.603933
v 0.679425 0.603933 0.452950
v 0.679425 0.000000 0.150983
v 0.679425 -0.452950 0.603933
v 0.754916 0.000000 0.150983
v 0.754916 -0.452950 0.603933
v 0.754916 0.603933 0.603933
v 0.754916 -0.603933 -0.603933
v 0.754916 -0.603933 0.452950
v 0.754916 -0.150983 -0.000000
v 0.679425 -0.603933 0.452950
v 0.679425 -0.150983 -0.000000
v 0.754916 -0.075492 0.075491
v 0.754916 -0.603933 0.603933
v 0.679425 -0.000000 -0.150983
v 0.679425 0.452950 -0.603933
v 0.754916 -0.000000 -0.150983
v 0.754916 0.452950 -0.603933
v 0.754916 0.603933 -0.452950
v 0.754916 0.150983 -0.000000
v 0.679425 0.603933 -0.452950
v 0.679425 0.150983 -0.000000
v 0.754916 0.075492 -0.075492
v 0.754916 0.603933 -0.603933
v -0.754916 -0.603933 -0.452950
v -0.754916 0.452950 0.603933
v -0.679425 -0.603933 -0.452950
v -0.679425 0.452950 0.603933
v -0.754916 -0.452950 -0.603933
v -0.754916 0.603933 0.452950
v -0.679425 -0.452950 -0.603933
v -0.679425 0.603933 0.452950
v -0.679425 0.000000 0.150983
v -0.679425 -0.452950 0.603933
v -0.754916 0.000000 0.150983
v -0.754916 -0.452950 0.603933
v -0.754916 0.603933 0.603933
v -0.754916 -0.603933 -0.603933
v -0.754916 -0.603933 0.452950
v -0.754916 -0.150983 -0.000000
v -0.679425 -0.603933 0.452950
v -0.679425 -0.150983 -0.000000
v -0.754916 -0.075492 0.075492
v -0.754916 -0.603933 0.603933
v -0.679425 -0.000000 -0.150983
v -0.679425 0.452950 -0.603933
v -0.754916 -0.000000 -0.150983
v -0.754916 0.452950 -0.603933
v -0.754916 0.603933 -0.452950
v -0.754916 0.150983 0.000000
v -0.679425 0.603933 -0.452950
v -0.679425 0.150983 0.000000
v -0.754916 0.075492 -0.075492
v -0.754916 0.603933 -0.603933
v -0.759543 -0.759543 0.759543
v -0.759543 0.759543 0.759543
v -0.759543 -0.759543 -0.759543
v -0.759543 0.759543 -0.759543
v 0.759543 -0.759543 0.759543
v 0.759543 0.759543 0.759543
v 0.759543 -0.759543 -0.759543
v 0.759543 0.759543 -0.759543
v -0.759543 -0.607635 0.607635
v -0.759543 0.607635 0.607635
v -0.759543 0.607635 -0.607635
v -0.759543 -0.607635 -0.607635
v -0.607635 -0.607635 -0.759543
v -0.607635 0.607635 -0.759543
v 0.607635 0.607635 -0.759543
v 0.607635 -0.607635 -0.759543
v 0.759543 -0.607635 -0.607635
v 0.759543 0.607635 -0.607635
v 0.759543 0.607635 0.607635
v 0.759543 -0.607635 0.607635
v 0.607635 -0.607635 0.759543
v 0.607635 0.607635 0.759543
v -0.607635 0.607635 0.759543
v -0.607635 -0.607635 0.759543
v -0.607635 -0.759543 -0.607635
v 0.607635 -0.759543 -0.607635
v 0.607635 -0.759543 0.607635
v -0.607635 -0.759543 0.607635
v 0.607635 0.759543 -0.607635
v -0.607635 0.759543 -0.607635
v -0.607635 0.759543 0.607635
v 0.607635 0.759543 0.607635
v -0.683589 -0.607635 0.607635
v -0.683589 0.607635 0.607635
v -0.683589 -0.607635 -0.607635
v -0.683589 0.607635 -0.607635
v -0.607635 0.607635 -0.683589
v -0.607635 -0.607635 -0.683589
v 0.607635 -0.607635 -0.683589
v 0.607635 0.607635 -0.683589
v 0.683589 0.607635 -0.607635
v 0.683589 -0.607635 -0.607635
v 0.683589 -0.607635 0.607635
v 0.683589 0.607635 0.607635
v 0.607635 0.607635 0.683589
v 0.607635 -0.607635 0.683589
v -0.607635 -0.607635 0.683589
v -0.607635 0.607635 0.683589
v 0.607635 -0.683589 -0.607635
v -0.607635 -0.683589 -0.607635
v -0.607635 -0.683589 0.607635
v 0.607635 -0.683589 0.607635
v -0.607635 0.683589 -0.607635
v 0.607635 0.683589 -0.607635
v 0.607635 0.683589 0.607635
v -0.607635 0.683589 0.607635
v 0.452950 -0.603933 0.754916
v -0.603933 0.452950 0.754916
v 0.452950 -0.603933 0.679425
v -0.603933 0.452950 0.679425
v 0.603933 -0.452950 0.754916
v -0.452950 0.603933 0.754916
v 0.603933 -0.452950 0.679425
v -0.452950 0.603933 0.679425
v -0.150983 0.000000 0.679425
v -0.603933 -0.452950 0.679425
v -0.150983 0.000000 0.754916
v -0.603933 -0.452950 0.754916
v -0.603933 0.603933 0.754916
v 0.603933 -0.603933 0.754916
v -0.452950 -0.603933 0.754916
v 0.000000 -0.150983 0.754916
v -0.452950 -0.603933 0.679425
v 0.000000 -0.150983 0.679425
v -0.075492 -0.075492 0.754916
v -0.603933 -0.603933 0.754916
v 0.150983 -0.000000 0.679425
v 0.603933 0.452950 0.679425
v 0.150983 -0.000000 0.754916
v 0.603933 0.452950 0.754916
v 0.452950 0.603933 0.754916
v 0.000000 0.150983 0.754916
v 0.452950 0.603933 0.679425
v 0.000000 0.150983 0.679425
v 0.075492 0.075492 0.754916
v 0.603933 0.603933 0.754916
v 0.452950 -0.603933 -0.754916
v -0.603933 0.452950 -0.754916
v 0.452950 -0.603933 -0.679425
v -0.603933 0.452950 -0.679425
v 0.603933 -0.452950 -0.754916
v -0.452950 0.603933 -0.754916
v 0.603933 -0.452950 -0.679425
v -0.452950 0.603933 -0.679425
v -0.150983 0.000000 -0.679425
v -0.603933 -0.452950 -0.679425
v -0.150983 0.000000 -0.754916
v -0.603933 -0.452950 -0.754916
v -0.603933 0.603933 -0.754916
v 0.603933 -0.603933 -0.754916
v -0.452950 -0.603933 -0.754916
v 0.000000 -0.150983 -0.754916
v -0.452950 -0.603933 -0.679425
v 0.000000 -0.150983 -0.679425
v -0.075492 -0.075492 -0.754916
v -0.603933 -0.603933 -0.754916
v 0.150983 -0.000000 -0.679425
v 0.603933 0.452950 -0.679425
v 0.150983 -0.000000 -0.754916
v 0.603933 0.452950 -0.754916
v 0.452950 0.603933 -0.754916
v 0.000000 0.150983 -0.754916
v 0.452950 0.603933 -0.679425
v 0.000000 0.150983 -0.679425
v 0.075492 0.075492 -0.754916
v 0.603933 0.603933 -0.754916
v -0.603933 -0.754916 -0.452950
v 0.452950 -0.754916 0.603933
v -0.603933 -0.679425 -0.452950
v 0.452950 -0.679425 0.603933
v -0.452950 -0.754916 -0.603933
v 0.603933 -0.754916 0.452950
v -0.452950 -0.679425 -0.603933
v 0.603933 -0.679425 0.452950
v 0.000000 -0.679425 0.150983
v -0.452950 -0.679425 0.603933
v 0.000000 -0.754916 0.150983
v -0.452950 -0.754916 0.603933
v 0.603933 -0.754916 0.603933
v -0.603933 -0.754916 -0.603933
v -0.603933 -0.754916 0.452950
v -0.150983 -0.754916 -0.000000
v -0.603933 -0.679425 0.452950
v -0.150983 -0.679425 -0.000000
v -0.075492 -0.754916 0.075491
v -0.603933 -0.754916 0.603933
v -0.000000 -0.679425 -0.150983
v 0.452950 -0.679425 -0.603933
v -0.000000 -0.754916 -0.150983
v 0.452950 -0.754916 -0.603933
v 0.603933 -0.754916 -0.452950
v 0.150983 -0.754916 -0.000000
v 0.603933 -0.679425 -0.452950
v 0.150983 -0.679425 -0.000000
v 0.075492 -0.754916 -0.075492
v 0.603933 -0.754916 -0.603933
v -0.603933 0.754916 -0.452950
v 0.452950 0.754916 0.603933
v -0.603933 0.679425 -0.452950
v 0.452950 0.679425 0.603933
v -0.452950 0.754916 -0.603933
v 0.603933 0.754916 0.452950
v -0.452950 0.679425 -0.603933
v 0.603933 0.679425 0.452950
v 0.000000 0.679425 0.150983
v -0.452950 0.679425 0.603933
v 0.000000 0.754916 0.150983
v -0.452950 0.754916 0.603933
v 0.603933 0.754916 0.603933
v -0.603933 0.754916 -0.603933
v -0.603933 0.754916 0.452950
v -0.150983 0.754916 -0.000000
v -0.603933 0.679425 0.452950
v -0.150983 0.679425 -0.000000
v -0.075492 0.754916 0.075492
v -0.603933 0.754916 0.603933
v 0.000000 0.679425 -0.150983
v 0.452950 0.679425 -0.603933
v 0.000000 0.754916 -0.150983
v 0.452950 0.754916 -0.603933
v 0.603933 0.754916 -0.452950
v 0.150983 0.754916 0.000000
v 0.603933 0.679425 -0.452950
v 0.150983 0.679425 0.000000
v 0.075492 0.754916 -0.075492
v 0.603933 0.754916 -0.603933
vn -0.0000 -0.7071 0.7071
vn -0.0000 0.7071 -0.7071
vn 1.0000 -0.0000 -0.0000
vn -0.0000 0.7071 0.7071
vn -0.0000 -0.7071 -0.7071
vn -1.0000 -0.0000 -0.0000
vn -0.0000 1.0000 -0.0000
vn -0.0000 -0.0000 1.0000
vn -0.0000 -0.0000 -1.0000
vn -0.0000 -1.0000 -0.0000
vn -0.7071 -0.7071 -0.0000
vn 0.7071 0.7071 -0.0000
vn -0.7071 0.7071 -0.0000
vn 0.7071 -0.7071 -0.0000
vn -0.7071 -0.0000 0.7071
vn 0.7071 -0.0000 -0.7071
vn 0.7071 -0.0000 0.7071
vn -0.7071 -0.0000 -0.7071
vt 0.595597 0.000821
vt 0.595597 0.280669
vt 0.581462 0.280669
vt 0.581462 0.000821
vt 0.595597 0.282311
vt 0.595597 0.562159
vt 0.581462 0.562159
vt 0.581462 0.282311
vt 0.104050 0.000821
vt 0.104050 0.320648
vt 0.084061 0.300658
vt 0.084061 0.020810
vt 0.750519 0.922063
vt 0.750519 0.802128
vt 0.764654 0.802128
vt 0.764654 0.922063
vt 0.124039 0.020810
vt 0.124039 0.300658
vt 0.095477 0.957467
vt 0.095477 0.837532
vt 0.109612 0.837532
vt 0.109612 0.957467
vt 0.520249 0.802128
vt 0.520249 0.942052
vt 0.500260 0.942052
vt 0.500260 0.822117
vt 0.540238 0.822117
vt 0.540238 0.942052
vt 0.141164 0.837532
vt 0.141164 0.957467
vt 0.127029 0.957467
vt 0.127029 0.837532
vt 0.048149 0.957467
vt 0.048149 0.837532
vt 0.062284 0.837532
vt 0.062283 0.957467
vt 0.728888 0.942052
vt 0.728888 0.802128
vt 0.748878 0.802128
vt 0.748878 0.922063
vt 0.708899 0.922063
vt 0.708899 0.802128
vt 0.099837 0.322289
vt 0.113971 0.322289
vt 0.113971 0.602138
vt 0.099837 0.602138
vt 0.084061 0.322289
vt 0.098195 0.322289
vt 0.098195 0.602138
vt 0.084061 0.602138
vt 0.228910 0.000821
vt 0.248899 0.020810
vt 0.248899 0.300658
vt 0.228910 0.320648
vt 0.766295 0.802128
vt 0.780430 0.802128
vt 0.780430 0.922063
vt 0.766295 0.922063
vt 0.208920 0.020810
vt 0.208920 0.300658
vt 0.797847 0.802128
vt 0.811982 0.802128
vt 0.811982 0.922063
vt 0.797847 0.922063
vt 0.270530 0.942052
vt 0.250540 0.922063
vt 0.250540 0.802128
vt 0.270530 0.802128
vt 0.290519 0.922063
vt 0.290519 0.802128
vt 0.875086 0.922063
vt 0.860952 0.922063
vt 0.860952 0.802128
vt 0.875086 0.802128
vt 0.859310 0.922063
vt 0.845176 0.922063
vt 0.845176 0.802128
vt 0.859310 0.802128
vt 0.603489 0.942052
vt 0.583500 0.922063
vt 0.583500 0.802128
vt 0.603489 0.802128
vt 0.623478 0.922063
vt 0.623478 0.802128
vt 0.983317 0.000821
vt 0.983317 0.228359
vt 0.969095 0.228359
vt 0.969095 0.000821
vt 0.938079 0.800486
vt 0.938079 0.572948
vt 0.952300 0.572948
vt 0.952300 0.800486
vt 0.983403 0.282311
vt 0.983403 0.509849
vt 0.969182 0.509849
vt 0.969182 0.282311
vt 0.888140 0.000821
vt 0.888140 0.228359
vt 0.873919 0.228359
vt 0.873919 0.000821
vt 0.951591 0.000821
vt 0.951591 0.228359
vt 0.937370 0.228359
vt 0.937370 0.000821
vt 0.951678 0.282311
vt 0.951678 0.509849
vt 0.937457 0.509849
vt 0.937457 0.282311
vt 0.399318 0.000821
vt 0.399318 0.285243
vt 0.370876 0.256801
vt 0.370876 0.029263
vt 0.250540 0.571307
vt 0.250540 0.286885
vt 0.278983 0.315327
vt 0.278983 0.542865
vt 0.000821 0.606711
vt 0.000821 0.322289
vt 0.029263 0.350731
vt 0.029263 0.578269
vt 0.519653 0.000821
vt 0.519653 0.285243
vt 0.491211 0.256801
vt 0.491211 0.029263
vt 0.429402 0.000821
vt 0.429402 0.285243
vt 0.400959 0.256801
vt 0.400959 0.029263
vt 0.551378 0.571307
vt 0.551378 0.286885
vt 0.579821 0.315327
vt 0.579821 0.542865
vt 0.431043 0.571307
vt 0.431043 0.286885
vt 0.459485 0.315327
vt 0.459485 0.542865
vt 0.280624 0.571307
vt 0.280624 0.286885
vt 0.309066 0.315327
vt 0.309066 0.542865
vt 0.059347 0.322289
vt 0.059347 0.606711
vt 0.030905 0.578269
vt 0.030905 0.350731
vt 0.310708 0.571307
vt 0.310708 0.286885
vt 0.339150 0.315327
vt 0.339150 0.542865
vt 0.461127 0.571307
vt 0.461127 0.286885
vt 0.489569 0.315327
vt 0.489569 0.542865
vt 0.521295 0.285243
vt 0.521295 0.000821
vt 0.549737 0.029263
vt 0.549737 0.256801
vt 0.459485 0.000821
vt 0.459485 0.285243
vt 0.431043 0.256801
vt 0.431043 0.029263
vt 0.491211 0.571307
vt 0.491211 0.286885
vt 0.519653 0.315327
vt 0.519653 0.542865
vt 0.461127 0.285243
vt 0.461127 0.000821
vt 0.489569 0.029263
vt 0.489569 0.256801
vt 0.369234 0.286885
vt 0.369234 0.571307
vt 0.340792 0.542865
vt 0.340792 0.315327
vt 0.339150 0.000821
vt 0.339150 0.285243
vt 0.310708 0.256801
vt 0.310708 0.029263
vt 0.278983 0.000821
vt 0.278983 0.285243
vt 0.250540 0.256801
vt 0.250540 0.029263
vt 0.340792 0.285243
vt 0.340792 0.000821
vt 0.369234 0.029263
vt 0.369234 0.256801
vt 0.280624 0.285243
vt 0.280624 0.000821
vt 0.309066 0.029263
vt 0.309066 0.256801
vt 0.370876 0.571307
vt 0.370876 0.286885
vt 0.399318 0.315327
vt 0.399318 0.542865
vt 0.551378 0.285243
vt 0.551378 0.000821
vt 0.579821 0.029263
vt 0.579821 0.256801
vt 0.429402 0.286885
vt 0.429402 0.571307
vt 0.400960 0.542865
vt 0.400959 0.315327
vt 0.521295 0.571307
vt 0.521295 0.286885
vt 0.549737 0.315327
vt 0.549737 0.542865
vt 0.708899 0.800486
vt 0.708899 0.572948
vt 0.936437 0.572948
vt 0.936437 0.800486
vt 0.228359 0.608353
vt 0.228359 0.835891
vt 0.000821 0.835891
vt 0.000821 0.608353
vt 0.840552 0.000821
vt 0.840552 0.228359
vt 0.613014 0.228359
vt 0.613014 0.000821
vt 0.478078 0.800486
vt 0.250540 0.800486
vt 0.250540 0.572948
vt 0.478078 0.572948
vt 0.824776 0.282311
vt 0.824776 0.509849
vt 0.597238 0.509849
vt 0.597238 0.282311
vt 0.479720 0.572948
vt 0.707258 0.572948
vt 0.707258 0.800486
vt 0.479720 0.800486
vt 0.969804 0.800486
vt 0.969804 0.572948
vt 0.984025 0.572948
vt 0.984025 0.800486
vt 0.874006 0.509849
vt 0.874006 0.282311
vt 0.888227 0.282311
vt 0.888227 0.509849
vt 0.904003 0.000821
vt 0.904003 0.228359
vt 0.889782 0.228359
vt 0.889782 0.000821
vt 0.244221 0.608353
vt 0.244221 0.835891
vt 0.230000 0.835891
vt 0.230000 0.608353
vt 0.967454 0.000821
vt 0.967454 0.228359
vt 0.953233 0.228359
vt 0.953233 0.000821
vt 0.889869 0.509849
vt 0.889869 0.282311
vt 0.904090 0.282311
vt 0.904090 0.509849
vt 0.953319 0.509849
vt 0.953319 0.282311
vt 0.967540 0.282311
vt 0.967541 0.509849
vt 0.999179 0.000821
vt 0.999179 0.228359
vt 0.984958 0.228359
vt 0.984958 0.000821
vt 0.842194 0.228359
vt 0.842194 0.000821
vt 0.856415 0.000821
vt 0.856415 0.228359
vt 0.953941 0.800486
vt 0.953941 0.572948
vt 0.968162 0.572948
vt 0.968162 0.800486
vt 0.826418 0.509849
vt 0.826418 0.282311
vt 0.840639 0.282311
vt 0.840639 0.509849
vt 0.905645 0.228359
vt 0.905645 0.000821
vt 0.919866 0.000821
vt 0.919866 0.228359
vt 0.921507 0.228359
vt 0.921507 0.000821
vt 0.935728 0.000821
vt 0.935728 0.228359
vt 0.919952 0.282311
vt 0.919952 0.509849
vt 0.905731 0.509849
vt 0.905731 0.282311
vt 0.921594 0.509849
vt 0.921594 0.282311
vt 0.935815 0.282311
vt 0.935815 0.509849
vt 0.856502 0.282311
vt 0.856502 0.509849
vt 0.842280 0.509849
vt 0.842280 0.282311
vt 0.858057 0.228359
vt 0.858057 0.000821
vt 0.872278 0.000821
vt 0.872278 0.228359
vt 0.872364 0.282311
vt 0.872364 0.509849
vt 0.858143 0.509849
vt 0.858143 0.282311
vt 0.183077 0.602138
vt 0.183077 0.322289
vt 0.197211 0.322289
vt 0.197211 0.602138
vt 0.125681 0.602138
vt 0.125681 0.322289
vt 0.139815 0.322289
vt 0.139815 0.602138
vt 0.020810 0.000821
vt 0.020810 0.320648
vt 0.000821 0.300658
vt 0.000821 0.020810
vt 0.078060 0.837532
vt 0.078060 0.957467
vt 0.063925 0.957467
vt 0.063925 0.837532
vt 0.040799 0.020810
vt 0.040799 0.300658
vt 0.938190 0.802128
vt 0.938190 0.922063
vt 0.924056 0.922063
vt 0.924056 0.802128
vt 0.312150 0.942052
vt 0.312150 0.802128
vt 0.332139 0.802128
vt 0.332139 0.922063
vt 0.292160 0.922063
vt 0.292160 0.802128
vt 0.158581 0.957467
vt 0.158581 0.837532
vt 0.172716 0.837532
vt 0.172716 0.957467
vt 0.000821 0.957467
vt 0.000821 0.837532
vt 0.014955 0.837532
vt 0.014955 0.957467
vt 0.561869 0.802128
vt 0.561869 0.942052
vt 0.541880 0.942052
vt 0.541880 0.822117
vt 0.581858 0.822117
vt 0.581858 0.942052
vt 0.224697 0.322289
vt 0.238831 0.322289
vt 0.238831 0.602138
vt 0.224697 0.602138
vt 0.208920 0.322289
vt 0.223055 0.322289
vt 0.223055 0.602138
vt 0.208920 0.602138
vt 0.062430 0.000821
vt 0.082419 0.020810
vt 0.082419 0.300658
vt 0.062430 0.320648
vt 0.156940 0.957467
vt 0.142805 0.957467
vt 0.142805 0.837532
vt 0.156940 0.837532
vt 0.042441 0.020810
vt 0.042441 0.300658
vt 0.796206 0.922063
vt 0.782071 0.922063
vt 0.782071 0.802128
vt 0.796206 0.802128
vt 0.353769 0.942052
vt 0.333780 0.922063
vt 0.333780 0.802128
vt 0.353769 0.802128
vt 0.373759 0.922063
vt 0.373759 0.802128
vt 0.843534 0.922063
vt 0.829399 0.922063
vt 0.829399 0.802128
vt 0.843534 0.802128
vt 0.093836 0.957467
vt 0.079701 0.957467
vt 0.079701 0.837532
vt 0.093836 0.837532
vt 0.686729 0.942052
vt 0.666740 0.922063
vt 0.666740 0.802128
vt 0.686729 0.802128
vt 0.706718 0.922063
vt 0.706718 0.802128
vt 0.611373 0.000821
vt 0.611373 0.280669
vt 0.597238 0.280669
vt 0.597238 0.000821
vt 0.060988 0.602138
vt 0.060988 0.322289
vt 0.075123 0.322289
vt 0.075123 0.602138
vt 0.187290 0.320648
vt 0.187290 0.000821
vt 0.207279 0.020810
vt 0.207279 0.300658
vt 0.939832 0.922063
vt 0.939832 0.802128
vt 0.953966 0.802128
vt 0.953966 0.922063
vt 0.167301 0.300658
vt 0.167301 0.020810
vt 0.892504 0.922063
vt 0.892504 0.802128
vt 0.906638 0.802128
vt 0.906638 0.922063
vt 0.437009 0.802128
vt 0.437009 0.942052
vt 0.417020 0.942052
vt 0.417020 0.822117
vt 0.456999 0.822117
vt 0.456999 0.942052
vt 0.125388 0.837532
vt 0.125388 0.957467
vt 0.111253 0.957467
vt 0.111253 0.837532
vt 0.016597 0.957467
vt 0.016597 0.837532
vt 0.030731 0.837532
vt 0.030731 0.957467
vt 0.478629 0.802128
vt 0.478629 0.942052
vt 0.458640 0.942052
vt 0.458640 0.822117
vt 0.498618 0.822117
vt 0.498619 0.942052
vt 0.181435 0.602138
vt 0.167301 0.602138
vt 0.167301 0.322289
vt 0.181435 0.322289
vt 0.151524 0.322289
vt 0.165659 0.322289
vt 0.165659 0.602138
vt 0.151525 0.602138
vt 0.145670 0.000821
vt 0.165659 0.020810
vt 0.165659 0.300658
vt 0.145670 0.320648
vt 0.908280 0.802128
vt 0.922414 0.802128
vt 0.922414 0.922063
vt 0.908280 0.922063
vt 0.125681 0.020810
vt 0.125681 0.300658
vt 0.827758 0.922063
vt 0.813623 0.922063
vt 0.813623 0.802128
vt 0.827758 0.802128
vt 0.395389 0.942052
vt 0.375400 0.922063
vt 0.375400 0.802128
vt 0.395389 0.802128
vt 0.415379 0.922063
vt 0.415379 0.802128
vt 0.890862 0.922063
vt 0.876728 0.922063
vt 0.876728 0.802128
vt 0.890862 0.802128
vt 0.032373 0.837532
vt 0.046507 0.837532
vt 0.046507 0.957467
vt 0.032373 0.957467
vt 0.645109 0.802128
vt 0.665098 0.822117
vt 0.665098 0.942052
vt 0.645109 0.942052
vt 0.625120 0.822117
vt 0.625120 0.942052
s 0
usemtl Medium_Wooden_Box.01
f 473/937/37 474/938/37 476/939/37 475/940/37
f 479/941/38 480/942/38 478/943/38 477/944/38
f 486/945/39 485/946/39 474/947/39 473/948/39
f 484/949/40 483/950/40 481/951/40 482/952/40
f 477/953/39 478/954/39 485/946/39 486/945/39
f 489/955/41 490/956/41 488/957/41 487/958/41
f 492/959/39 491/960/39 483/961/39 484/962/39
f 487/963/39 488/964/39 491/960/39 492/959/39
f 496/965/41 495/966/41 493/967/41 494/968/41
f 499/969/40 500/970/40 498/971/40 497/972/40
f 502/973/39 501/974/39 495/975/39 496/976/39
f 497/977/39 498/978/39 501/974/39 502/973/39
f 503/979/37 505/980/37 506/981/37 504/982/37
f 509/983/38 507/984/38 508/985/38 510/986/38
f 516/987/42 503/988/42 504/989/42 515/990/42
f 514/991/40 512/992/40 511/993/40 513/994/40
f 507/995/42 516/987/42 515/990/42 508/996/42
f 519/997/41 517/998/41 518/999/41 520/1000/41
f 522/1001/42 514/1002/42 513/1003/42 521/1004/42
f 517/1005/42 522/1001/42 521/1004/42 518/1006/42
f 526/1007/41 524/1008/41 523/1009/41 525/1010/41
f 529/1011/40 527/1012/40 528/1013/40 530/1014/40
f 532/1015/42 526/1016/42 525/1017/42 531/1018/42
f 527/1019/42 532/1015/42 531/1018/42 528/1020/42
f 553/1021/42 554/1022/42 577/1023/42 578/1024/42
f 548/1025/43 545/1026/43 570/1027/43 571/1028/43
f 549/1029/44 550/1030/44 573/1031/44 574/1032/44
f 544/1033/43 541/1034/43 565/1035/43 567/1036/43
f 545/1037/39 546/1038/39 569/1039/39 570/1040/39
f 541/1041/45 542/1042/45 566/1043/45 565/1044/45
f 533/1045/42 534/1046/42 542/1047/42 541/1048/42
f 534/1049/42 536/1050/42 543/1051/42 542/1052/42
f 536/1053/42 535/1054/42 544/1055/42 543/1056/42
f 535/1057/42 533/1058/42 541/1059/42 544/1060/42
f 535/1061/45 536/1062/45 546/1063/45 545/1064/45
f 536/1065/45 540/1066/45 547/1067/45 546/1068/45
f 540/1069/45 539/1070/45 548/1071/45 547/1072/45
f 539/1073/45 535/1074/45 545/1075/45 548/1076/45
f 539/1077/39 540/1078/39 550/1079/39 549/1080/39
f 540/1081/39 538/1082/39 551/1083/39 550/1084/39
f 538/1085/39 537/1086/39 552/1087/39 551/1088/39
f 537/1089/39 539/1090/39 549/1091/39 552/1092/39
f 537/1093/44 538/1094/44 554/1095/44 553/1096/44
f 538/1097/44 534/1098/44 555/1099/44 554/1100/44
f 534/1101/44 533/1102/44 556/1103/44 555/1104/44
f 533/1105/44 537/1106/44 553/1107/44 556/1108/44
f 535/1109/46 539/1110/46 558/1111/46 557/1112/46
f 539/1113/46 537/1114/46 559/1115/46 558/1116/46
f 537/1117/46 533/1118/46 560/1119/46 559/1120/46
f 533/1121/46 535/1122/46 557/1123/46 560/1124/46
f 540/1125/43 536/1126/43 562/1127/43 561/1128/43
f 536/1129/43 534/1130/43 563/1131/43 562/1132/43
f 534/1133/43 538/1134/43 564/1135/43 563/1136/43
f 538/1137/43 540/1138/43 561/1139/43 564/1140/43
f 565/1141/42 566/1142/42 568/1143/42 567/1144/42
f 570/1145/45 569/1146/45 572/1147/45 571/1148/45
f 574/1149/39 573/1150/39 576/1151/39 575/1152/39
f 578/1153/44 577/1154/44 580/1155/44 579/1156/44
f 582/1157/46 581/1158/46 584/1159/46 583/1160/46
f 586/1161/43 585/1162/43 588/1163/43 587/1164/43
f 542/1165/46 543/1166/46 568/1167/46 566/1168/46
f 552/1169/43 549/1170/43 574/1171/43 575/1172/43
f 557/1173/44 558/1174/44 581/1175/44 582/1176/44
f 546/1177/46 547/1178/46 572/1179/46 569/1180/46
f 556/1181/43 553/1182/43 578/1183/43 579/1184/43
f 561/1185/44 562/1186/44 585/1187/44 586/1188/44
f 543/1189/44 544/1190/44 567/1191/44 568/1192/44
f 550/1193/46 551/1194/46 576/1195/46 573/1196/46
f 560/1197/39 557/1198/39 582/1199/39 583/1200/39
f 547/1201/42 548/1202/42 571/1203/42 572/1204/42
f 554/1205/46 555/1206/46 580/1207/46 577/1208/46
f 564/1209/42 561/1210/42 586/1211/42 587/1212/42
f 551/1213/45 552/1214/45 575/1215/45 576/1216/45
f 558/1217/42 559/1218/42 584/1219/42 581/1220/42
f 555/1221/39 556/1222/39 579/1223/39 580/1224/39
f 562/1225/39 563/1226/39 588/1227/39 585/1228/39
f 559/1229/45 560/1230/45 583/1231/45 584/1232/45
f 563/1233/45 564/1234/45 587/1235/45 588/1236/45
f 589/1237/47 590/1238/47 592/1239/47 591/1240/47
f 595/1241/48 596/1242/48 594/1243/48 593/1244/48
f 602/1245/44 601/1246/44 590/1247/44 589/1248/44
f 600/1249/49 599/1250/49 597/1251/49 598/1252/49
f 593/1253/44 594/1254/44 601/1246/44 602/1245/44
f 605/1255/50 606/1256/50 604/1257/50 603/1258/50
f 608/1259/44 607/1260/44 599/1261/44 600/1262/44
f 603/1263/44 604/1264/44 607/1260/44 608/1259/44
f 612/1265/50 611/1266/50 609/1267/50 610/1268/50
f 615/1269/49 616/1270/49 614/1271/49 613/1272/49
f 618/1273/44 617/1274/44 611/1275/44 612/1276/44
f 613/1277/44 614/1278/44 617/1274/44 618/1273/44
f 619/1279/47 621/1280/47 622/1281/47 620/1282/47
f 625/1283/48 623/1284/48 624/1285/48 626/1286/48
f 632/1287/45 619/1288/45 620/1289/45 631/1290/45
f 630/1291/49 628/1292/49 627/1293/49 629/1294/49
f 623/1295/45 632/1287/45 631/1290/45 624/1296/45
f 635/1297/50 633/1298/50 634/1299/50 636/1300/50
f 638/1301/45 630/1302/45 629/1303/45 637/1304/45
f 633/1305/45 638/1301/45 637/1304/45 634/1306/45
f 642/1307/50 640/1308/50 639/1309/50 641/1310/50
f 645/1311/49 643/1312/49 644/1313/49 646/1314/49
f 648/1315/45 642/1316/45 641/1317/45 647/1318/45
f 643/1319/45 648/1315/45 647/1318/45 644/1320/45
f 649/1321/51 650/1322/51 652/1323/51 651/1324/51
f 655/1325/52 656/1326/52 654/1327/52 653/1328/52
f 662/1329/46 661/1330/46 650/1331/46 649/1332/46
f 660/1333/53 659/1334/53 657/1335/53 658/1336/53
f 653/1337/46 654/1338/46 661/1330/46 662/1329/46
f 665/1339/54 666/1340/54 664/1341/54 663/1342/54
f 668/1343/46 667/1344/46 659/1345/46 660/1346/46
f 663/1347/46 664/1348/46 667/1344/46 668/1343/46
f 672/1349/54 671/1350/54 669/1351/54 670/1352/54
f 675/1353/53 676/1354/53 674/1355/53 673/1356/53
f 678/1357/46 677/1358/46 671/1359/46 672/1360/46
f 673/1361/46 674/1362/46 677/1358/46 678/1357/46
f 679/1363/51 681/1364/51 682/1365/51 680/1366/51
f 685/1367/52 683/1368/52 684/1369/52 686/1370/52
f 692/1371/43 679/1372/43 680/1373/43 691/1374/43
f 690/1375/53 688/1376/53 687/1377/53 689/1378/53
f 683/1379/43 692/1371/43 691/1374/43 684/1380/43
f 695/1381/54 693/1382/54 694/1383/54 696/1384/54
f 698/1385/43 690/1386/43 689/1387/43 697/1388/43
f 693/1389/43 698/1385/43 697/1388/43 694/1390/43
f 702/1391/54 700/1392/54 699/1393/54 701/1394/54
f 705/1395/53 703/1396/53 704/1397/53 706/1398/53
f 708/1399/43 702/1400/43 701/1401/43 707/1402/43
f 703/1403/43 708/1399/43 707/1402/43 704/1404/43
